<?xml version="1.0" encoding="utf-8"?>
<!-- Generator: Adobe Illustrator 19.0.0, SVG Export Plug-In . SVG Version: 6.00 Build 0)  -->
<svg version="1.1" id="Layer_1" xmlns="http://www.w3.org/2000/svg" xmlns:xlink="http://www.w3.org/1999/xlink" x="0px" y="0px"
	 viewBox="-280 372 50 50" style="enable-background:new -280 372 50 50;" xml:space="preserve">
<style type="text/css">
	.st0{fill:#272626;}
	.st1{font-family:'Calibri-Italic';}
	.st2{font-size:2.9136px;}
</style>
<g>
	<g id="XMLID_1_">
		<path id="XMLID_135_" class="st0" d="M-278.9,401.7l0.3-1.1l3.1-3.6h-2l0.3-1.4h5.7l-0.3,1.1l-3.1,3.7h2.4l-0.3,1.3H-278.9
			L-278.9,401.7z M-263.5,400.3c-0.1,0.3-0.2,0.5-0.3,0.7s-0.3,0.3-0.5,0.5c-0.2,0.1-0.5,0.2-0.8,0.3c-0.3,0.1-0.7,0.1-1.1,0.1h-3.1
			c-0.4,0-0.8,0-1.1-0.1c-0.3-0.1-0.5-0.1-0.7-0.3s-0.2-0.4-0.2-0.5c0-0.2,0-0.4,0-0.7l0.8-3.3c0.1-0.3,0.2-0.5,0.3-0.7
			s0.3-0.4,0.5-0.5s0.5-0.2,0.8-0.3s0.7-0.1,1.1-0.1h3.2c0.4,0,0.8,0,1.1,0.1s0.5,0.1,0.7,0.3c0.2,0.1,0.3,0.3,0.3,0.5s0,0.4,0,0.7
			l-0.5,1.9h-4.1l-0.4,1.1c-0.1,0.3,0,0.4,0.2,0.4c0.1,0,0.2,0,0.3-0.1c0.1-0.1,0.1-0.2,0.2-0.3l0.2-0.9h3.4L-263.5,400.3
			L-263.5,400.3z M-266.9,397.1l-0.1,0.5h0.7l0.1-0.5c0.1-0.3,0-0.5-0.3-0.5c-0.1,0-0.2,0-0.3,0.1
			C-266.8,396.8-266.9,396.9-266.9,397.1L-266.9,397.1z M-262.4,401.7l1.8-7.8h3.3l-1.8,7.8H-262.4L-262.4,401.7z M-249.7,400.3
			l0.3-1.1h-3.4l-0.2,0.8c0,0.2-0.1,0.3-0.2,0.3c-0.1,0.1-0.2,0.1-0.3,0.1c-0.2,0-0.3-0.1-0.2-0.4l0.3-1.1h4.1l0.5-1.9
			c0.1-0.3,0.1-0.5,0-0.7c0-0.2-0.1-0.4-0.3-0.5c-0.2-0.1-0.4-0.2-0.7-0.3c-0.3-0.1-0.6-0.1-1.1-0.1h-3.1c-0.4,0-0.8,0-1.1,0.1
			c-0.3,0.1-0.6,0.1-0.8,0.3c-0.2,0.1-0.4,0.3-0.5,0.5s-0.2,0.4-0.3,0.7l-0.8,3.3c-0.1,0.3-0.1,0.5,0,0.7c0,0.2,0.1,0.4,0.3,0.5
			s0.4,0.2,0.7,0.3s0.6,0.1,1.1,0.1h3.1c0.4,0,0.8,0,1.1-0.1c0.3-0.1,0.6-0.1,0.8-0.3c0.2-0.1,0.4-0.3,0.5-0.5
			S-249.7,400.5-249.7,400.3L-249.7,400.3z M-253.1,397.1c0-0.2,0.1-0.3,0.2-0.4s0.2-0.1,0.3-0.1c0.3,0,0.3,0.2,0.3,0.5l-0.1,0.5
			h-0.7V397.1L-253.1,397.1z M-248.6,401.7l1.4-6.2h5.2c0.8,0,1.3,0.1,1.6,0.5c0.3,0.3,0.4,0.8,0.3,1.3l-1.1,4.5h-3.4l1-4.3
			c0.1-0.3,0-0.4-0.2-0.4c-0.1,0-0.2,0-0.3,0.1c-0.1,0.1-0.1,0.2-0.2,0.3l-1,4.3L-248.6,401.7L-248.6,401.7z M-235.3,397.1l-0.7,2.9
			c-0.1,0.3,0,0.4,0.2,0.4c0.1,0,0.2,0,0.3-0.1c0.1-0.1,0.1-0.2,0.2-0.3l0.7-2.9c0.1-0.3,0-0.4-0.2-0.4c-0.1,0-0.2,0-0.3,0.1
			C-235.2,396.8-235.3,397-235.3,397.1L-235.3,397.1z M-238.6,396.9c0.1-0.3,0.2-0.5,0.3-0.7s0.3-0.4,0.5-0.5s0.5-0.2,0.8-0.3
			c0.3-0.1,0.7-0.1,1.1-0.1h3.1c0.4,0,0.8,0,1.1,0.1c0.3,0.1,0.5,0.1,0.7,0.3c0.2,0.1,0.3,0.3,0.3,0.5s0,0.4,0,0.7l-0.8,3.3
			c-0.1,0.3-0.2,0.5-0.3,0.7s-0.3,0.3-0.5,0.5c-0.2,0.1-0.5,0.2-0.8,0.3c-0.3,0.1-0.7,0.1-1.1,0.1h-3.1c-0.4,0-0.8,0-1.1-0.1
			c-0.3-0.1-0.5-0.1-0.7-0.3c-0.2-0.1-0.3-0.3-0.3-0.5s0-0.4,0-0.7L-238.6,396.9z"/>
	</g>
	<text id="XMLID_2_" transform="matrix(1 0 0 1 -260.4038 405.4043)" class="st0 st1 st2">Throw Trash Save Cash</text>
</g>
</svg>
