<?xml version="1.0" encoding="utf-8"?>
<!-- Generator: Adobe Illustrator 19.0.0, SVG Export Plug-In . SVG Version: 6.00 Build 0)  -->
<svg version="1.1" id="Layer_1" xmlns="http://www.w3.org/2000/svg" xmlns:xlink="http://www.w3.org/1999/xlink" x="0px" y="0px"
	 viewBox="0 0 50 50" style="enable-background:new 0 0 50 50;" xml:space="preserve">
<style type="text/css">
	.st0{fill:#272626;}
</style>
<g id="XMLID_3_">
	<g id="XMLID_218_">
		<path id="XMLID_330_" class="st0" d="M5.6,18.6c0-0.1,0.1-0.2,0.1-0.2c0.1,0,0.1,0,0.2,0C6,18.5,6,18.6,6,18.7
			c-0.1,0-0.1,0.1-0.2,0.1C5.7,18.8,5.6,18.7,5.6,18.6z"/>
		<path id="XMLID_329_" class="st0" d="M39.8,18.4c0.2-0.1,0.4,0.1,0.5,0.2c0.1,0.2,0,0.4-0.1,0.5c-0.1,0.1-0.3,0.1-0.5,0
			c-0.2-0.1-0.3-0.4-0.2-0.6C39.6,18.5,39.7,18.5,39.8,18.4z"/>
		<g id="XMLID_325_">
			<path id="XMLID_326_" class="st0" d="M14.1,18.7c0.7-0.1,1.5,0,2.1,0.4c0.5,0.3,0.9,0.6,1.2,1.1c0.3,0.4,0.4,1,0.4,1.5
				c0,0.6-0.2,1.2-0.5,1.7c-0.4,0.5-1,1-1.6,1.2c-0.6,0.2-1.2,0.2-1.8,0.1c-0.6-0.1-1.3-0.3-1.7-0.8c-0.5-0.4-0.9-1-1-1.7
				c-0.1-0.6,0-1.3,0.3-1.8c0.4-0.8,1.1-1.3,2-1.5C13.7,18.7,13.9,18.7,14.1,18.7z M14.1,18.9c-0.4,0.1-0.9,0.2-1.2,0.6
				c-0.4,0.4-0.6,1-0.7,1.5c-0.1,0.6-0.1,1.2,0.1,1.8c0.2,0.6,0.5,1.2,1.1,1.4c0.5,0.3,1.1,0.3,1.7,0.2c0.5-0.1,1-0.4,1.3-0.9
				c0.3-0.5,0.5-1.1,0.5-1.7c0-0.5,0-1-0.2-1.5c-0.2-0.5-0.6-1-1.1-1.3C15.2,18.8,14.6,18.8,14.1,18.9z"/>
		</g>
		<g id="XMLID_320_">
			<path id="XMLID_321_" class="st0" d="M26.5,19.2c0.2,0,0.4,0,0.6,0c-0.1,0.3-0.2,0.6-0.3,0.9c-0.1-0.2-0.3-0.3-0.5-0.4
				c-0.3-0.1-0.6,0-0.9,0.2c0.4,0.2,0.8,0.4,1,0.7c0.3,0.4,0.3,0.8,0.1,1.2c-0.1,0.4-0.5,0.7-0.8,0.8C25.2,23,24.7,23,24.1,23
				c-0.2,0-0.4,0-0.6,0.1c-0.1,0-0.1,0.1-0.1,0.2c0.1,0.1,0.2,0.1,0.3,0.1c0.6,0.1,1.2,0.1,1.8,0.2c0.4,0.1,0.9,0.2,1.2,0.4
				c0.2,0.2,0.4,0.5,0.3,0.8c0,0.4-0.3,0.6-0.6,0.8c-0.5,0.3-1.1,0.4-1.6,0.5c-0.7,0-1.3,0.1-2-0.1c-0.3-0.1-0.6-0.2-0.8-0.4
				c-0.2-0.2-0.3-0.4-0.3-0.6c0-0.3,0.2-0.5,0.4-0.6c0.4-0.2,0.8-0.3,1.2-0.4c-0.2-0.1-0.3-0.1-0.5-0.1c-0.1-0.1-0.3-0.2-0.3-0.3
				c0-0.2,0.2-0.3,0.3-0.4c0.2-0.1,0.5-0.2,0.7-0.2c-0.4-0.1-0.8-0.2-1.1-0.5c-0.3-0.3-0.5-0.7-0.4-1.1c0-0.3,0.2-0.7,0.5-0.9
				c0.5-0.4,1.1-0.6,1.7-0.6c0.3,0,0.6,0,0.9,0.1c0.1,0,0.1,0,0.1-0.1C25.6,19.5,26,19.3,26.5,19.2z M24,20c-0.4,0.1-0.8,0.4-1,0.7
				c-0.1,0.3-0.2,0.7-0.1,1c0.1,0.4,0.3,0.7,0.6,0.9c0.4,0.2,0.8,0.2,1.2,0.2c0.4-0.1,0.8-0.3,0.9-0.7c0.2-0.3,0.2-0.7,0.1-1.1
				c0-0.4-0.3-0.7-0.6-0.9C24.9,20,24.5,19.9,24,20z M23.8,24.1c-0.3,0-0.7,0.1-1,0.3c-0.2,0.1-0.4,0.3-0.4,0.6
				c0,0.3,0.1,0.5,0.3,0.7c0.3,0.2,0.7,0.3,1.1,0.4c0.5,0,1,0,1.5-0.1c0.3-0.1,0.6-0.2,0.9-0.4c0.2-0.2,0.2-0.4,0.2-0.6
				c-0.1-0.2-0.2-0.3-0.4-0.4c-0.3-0.2-0.7-0.2-1-0.3C24.5,24.1,24.2,24.1,23.8,24.1z"/>
		</g>
		<g id="XMLID_316_">
			<path id="XMLID_317_" class="st0" d="M27.9,20.3c0.7-0.3,1.5-0.5,2.2-0.5c0.5,0,1.1,0.1,1.5,0.5c0.3,0.2,0.4,0.6,0.5,0.9
				c0.1,0.8,0,1.6,0.1,2.4c0,0.2,0.1,0.5,0.2,0.7c0.1,0.1,0.2,0.2,0.3,0.2c-0.1,0-0.2,0-0.3,0c-0.3,0-0.5,0-0.8,0
				c-0.2-0.3-0.2-0.5-0.3-0.8c-0.2,0.4-0.6,0.6-0.9,0.8c-0.4,0.2-0.9,0.2-1.3,0.1c-0.4-0.1-0.8-0.2-1.1-0.5
				c-0.3-0.3-0.4-0.7-0.3-1.1c0.1-0.3,0.3-0.6,0.5-0.7c0.4-0.2,0.8-0.4,1.3-0.4c0.6-0.1,1.3-0.1,1.9-0.1c0-0.4-0.1-0.9-0.4-1.2
				c-0.2-0.3-0.6-0.4-1-0.5c-0.4,0-0.8,0-1.2,0.2c-0.2,0.1-0.4,0.3-0.6,0.6c-0.1,0.1-0.1,0.3-0.2,0.4C28.1,20.9,28,20.6,27.9,20.3z
				 M29.7,22c-0.4,0.1-0.7,0.3-1,0.6c-0.2,0.3-0.2,0.8-0.1,1.1c0.1,0.3,0.4,0.5,0.8,0.6c0.3,0.1,0.6,0.1,1,0c0.4-0.1,0.8-0.4,1-0.9
				c0.2-0.5,0.1-1,0.1-1.6C30.9,21.8,30.3,21.9,29.7,22z"/>
		</g>
		<path id="XMLID_315_" class="st0" d="M35.5,19.9c0.5-0.1,1-0.1,1.5,0c0.4,0.1,0.8,0.4,1,0.8c0.2,0.4,0.2,0.8,0.2,1.2
			c0,0.6,0,1.3,0.1,1.9c0,0.2,0.1,0.4,0.3,0.5c0.1,0,0.2,0.1,0.2,0.1c-0.3,0-0.7,0-1,0c-0.3,0-0.6,0-0.9,0c0.1-0.1,0.2-0.1,0.3-0.2
			c0.2-0.2,0.2-0.5,0.3-0.7c0-0.4,0-0.8,0-1.3c0-0.5,0-1.1-0.3-1.6c-0.1-0.3-0.4-0.6-0.8-0.6c-0.3-0.1-0.7,0-1,0.1
			c-0.3,0.1-0.6,0.4-0.7,0.7c-0.2,0.5-0.3,1-0.3,1.6c0,0.5,0,1,0.1,1.4c0,0.2,0.1,0.4,0.3,0.5c0.1,0.1,0.2,0.1,0.3,0.1
			c0,0,0,0-0.1,0c-0.3,0-0.6,0-0.8,0c-0.3,0-0.7,0-1,0c0.1-0.1,0.2-0.1,0.3-0.2c0.2-0.2,0.2-0.4,0.3-0.6c0.1-0.6,0-1.2,0-1.8
			c0-0.4,0-0.7,0-1.1c0-0.2-0.1-0.3-0.2-0.4c-0.1,0-0.2,0-0.2-0.1c0.4-0.1,0.8-0.2,1.1-0.3c0,0.4,0,0.8,0,1.2
			c0.1-0.2,0.1-0.3,0.2-0.5C34.6,20.3,35,20,35.5,19.9z"/>
		<path id="XMLID_314_" class="st0" d="M42.1,20.5c0.5-0.5,1.2-0.7,1.9-0.6c0.7,0,1.4,0.2,2,0.5c-0.1,0.3-0.2,0.5-0.3,0.8
			c0,0.1,0,0.1-0.1,0.2c-0.1-0.3-0.2-0.6-0.5-0.9c-0.4-0.4-1.1-0.5-1.7-0.4c-0.4,0.1-0.7,0.4-0.9,0.8c-0.2,0.4-0.3,0.9-0.3,1.3
			c0,0.6,0.1,1.1,0.5,1.6c0.3,0.3,0.7,0.6,1.2,0.6c0.3,0,0.7,0,1-0.2c0.4-0.2,0.7-0.6,1-1c0,0.1,0.1,0.1,0.1,0.2
			c-0.2,0.5-0.6,0.9-1.1,1.1c-0.5,0.2-1.1,0.2-1.6,0.2c-0.7-0.1-1.3-0.5-1.7-1.1c-0.3-0.5-0.4-1.1-0.3-1.6
			C41.5,21.3,41.7,20.8,42.1,20.5z"/>
		<path id="XMLID_313_" class="st0" d="M20.8,20c0.2-0.1,0.5-0.1,0.8-0.1c-0.1,0.3-0.2,0.7-0.4,1c-0.1-0.1-0.2-0.2-0.3-0.2
			c-0.3-0.1-0.6,0-0.8,0.2c-0.2,0.2-0.3,0.6-0.3,0.9c0,0.3,0,0.5,0,0.8c0,0.4,0,0.9,0.1,1.3c0,0.2,0.2,0.4,0.3,0.5
			c0.1,0,0.2,0,0.2,0.1c-0.1,0-0.2,0-0.3,0c-0.5,0-0.9,0-1.4,0c-0.1,0-0.1,0-0.2,0c0-0.1,0.1-0.1,0.2-0.1c0.2-0.1,0.3-0.2,0.4-0.4
			c0.1-0.2,0.1-0.4,0.1-0.7c0-0.5,0-1,0-1.5c0-0.4,0-0.8,0-1.2c0-0.1,0-0.2-0.1-0.3c-0.1-0.1-0.2-0.1-0.4-0.1c0,0,0-0.1,0.1-0.1
			c0.4-0.1,0.7-0.2,1.1-0.3c0,0.4,0,0.8,0,1.3c0.1-0.1,0.2-0.3,0.3-0.4C20.2,20.5,20.5,20.2,20.8,20z"/>
		<path id="XMLID_312_" class="st0" d="M39.2,20.2c0.4-0.1,0.8-0.2,1.1-0.3c0,0.9,0,1.8,0,2.8c0,0.4,0,0.8,0.1,1.3
			c0.1,0.2,0.3,0.4,0.5,0.5c0,0,0,0,0,0.1c-0.5,0-0.9,0-1.4,0c-0.2,0-0.4,0-0.5,0c0-0.1,0.1-0.1,0.2-0.1c0.2-0.1,0.3-0.3,0.3-0.5
			c0.1-0.4,0.1-0.9,0.1-1.3c0-0.5,0-1,0-1.5c0-0.2,0-0.4-0.1-0.5c-0.1-0.2-0.3-0.2-0.5-0.2C39.1,20.3,39.1,20.2,39.2,20.2z"/>
		<path id="XMLID_311_" class="st0" d="M5.2,20.9c0.7,0.2,1.3,0.6,1.8,1c0.5,0.3,0.9,0.7,1.2,1.2c0.3,0.4,0.4,0.8,0.4,1.3
			c0,1-0.4,1.9-1,2.7C8,27,8.4,26.9,8.8,27c0.6,0.1,1.2,0.5,1.6,1.1c0.2,0.3,0.4,0.7,0.4,1.1c0,0.1-0.1,0.3-0.2,0.4
			c-0.1,0.1-0.3,0.2-0.5,0.2c-0.6,0.1-1.1,0-1.7-0.2c-0.8-0.2-1.5-0.5-2.2-0.9c-0.2-0.1-0.4-0.2-0.5-0.4c0.1,0.1,0.2,0.1,0.4,0.2
			c0.5,0.3,1.1,0.6,1.7,0.6c0.3,0,0.6,0,0.8-0.1c0.2-0.1,0.1-0.4,0.1-0.6c-0.1-0.3-0.4-0.6-0.7-0.7c-0.3-0.2-0.7-0.2-1.1-0.1
			c-0.2,0-0.4,0.1-0.5,0.2c0.3-0.4,0.6-0.8,0.9-1.2c0.2-0.4,0.4-0.9,0.4-1.4c-0.1-0.4-0.3-0.8-0.6-1.1c-0.4-0.4-0.9-0.7-1.5-0.9
			c-0.4,0.8-0.6,1.6-0.6,2.5c0,0.3,0,0.6-0.1,0.9c0-0.2,0-0.3,0-0.5c0-0.4,0-0.8,0-1.2c0.1-0.7,0.2-1.3,0.5-2
			c0.1-0.4,0.2-0.7,0.2-1.1C5.4,21.5,5.4,21.2,5.2,20.9z"/>
		<g id="XMLID_270_">
			<path id="XMLID_303_" class="st0" d="M15.5,26.9c0.2-0.4,0.4-0.8,0.6-1.1c0,0,0.1,0.1,0.1,0.1c0.6,1.1,1.1,2.2,1.7,3.3
				c0.3,0.6,0.6,1.1,0.9,1.7c0.1,0.2,0.3,0.4,0.4,0.5c0.1,0.1,0.1,0.1,0.2,0.2c-0.6,0-1.2,0-1.9,0c-0.1,0-0.1,0-0.2,0
				c0.1-0.1,0.3-0.1,0.3-0.2c0.1-0.1,0.1-0.2,0.1-0.4c0-0.2-0.2-0.4-0.2-0.7c-0.2-0.4-0.4-0.9-0.6-1.3c-0.4,0-0.8,0-1.3,0
				c-0.3,0-0.7,0-1,0c-0.2,0.4-0.4,0.8-0.5,1.2C14.1,30.4,14,30.7,14,31c0,0.2,0.1,0.3,0.2,0.4c0.1,0.1,0.2,0.1,0.3,0.1
				c0,0-0.1,0-0.1,0c-0.4,0-0.8,0-1.3,0c-0.1,0-0.3,0-0.4,0c0.3-0.2,0.5-0.5,0.7-0.8c0.4-0.6,0.7-1.2,1-1.8
				C14.8,28.2,15.2,27.6,15.5,26.9z M15.7,27c-0.2,0.4-0.4,0.8-0.6,1.2c-0.1,0.2-0.2,0.3-0.2,0.5c0.4,0,0.8,0,1.2,0
				c0.3,0,0.5,0,0.8,0c-0.1-0.2-0.2-0.3-0.2-0.5c-0.3-0.5-0.5-1-0.7-1.5C15.8,26.8,15.7,26.9,15.7,27z"/>
		</g>
		<g id="XMLID_254_">
			<path id="XMLID_255_" class="st0" d="M25,26.9c0.5,0,1,0,1.5,0.2c0.6,0.3,1,0.8,1.2,1.4c0.1,0.5,0.1,1,0,1.5
				c-0.2,0.6-0.7,1.2-1.3,1.4c-0.5,0.2-1,0.2-1.5,0.2c-0.6-0.1-1.1-0.3-1.5-0.8c-0.4-0.4-0.5-1-0.5-1.6c0-0.5,0.1-1,0.5-1.4
				C23.7,27.3,24.3,27,25,26.9z M24.9,27.1c-0.4,0.1-0.8,0.3-1,0.7c-0.3,0.5-0.3,1.1-0.3,1.6c0,0.4,0.1,0.9,0.3,1.3
				c0.1,0.3,0.3,0.5,0.6,0.6c0.4,0.2,0.8,0.2,1.2,0.1c0.5-0.1,0.9-0.5,1-1c0.2-0.6,0.2-1.2,0.1-1.8c-0.1-0.5-0.3-1-0.7-1.3
				C25.8,27,25.3,27,24.9,27.1z"/>
		</g>
		<path id="XMLID_252_" class="st0" d="M30.1,27.1c0.4-0.2,0.9-0.3,1.3-0.2c0.4,0.1,0.9,0.3,1.1,0.7c0.1,0.1,0.2,0.3,0.2,0.5
			c0.1-0.4,0.4-0.7,0.7-0.9c0.4-0.3,0.9-0.3,1.4-0.2c0.5,0.1,1,0.4,1.2,0.9c0.1,0.3,0.2,0.7,0.2,1c0,0.7,0,1.3,0,2
			c0,0.2,0.1,0.4,0.2,0.6c0.1,0.1,0.2,0.1,0.3,0.2c-0.3,0-0.6,0-0.9,0c-0.3,0-0.6,0-0.8,0c0-0.1,0.1-0.1,0.2-0.2
			c0.2-0.1,0.2-0.3,0.3-0.5c0.1-0.5,0.1-0.9,0.1-1.4c0-0.5,0-1-0.2-1.5c-0.1-0.3-0.3-0.6-0.6-0.7c-0.3-0.2-0.7-0.1-1,0
			c-0.4,0.1-0.7,0.4-0.8,0.8c-0.1,0.3-0.1,0.7-0.1,1.1c0,0.5,0,1.1,0,1.6c0,0.2,0.1,0.5,0.3,0.7c0.1,0.1,0.2,0.1,0.2,0.2
			c-0.6,0-1.2,0-1.8,0c0-0.1,0.1-0.1,0.2-0.2c0.2-0.1,0.3-0.3,0.3-0.5c0.1-0.5,0.1-0.9,0.1-1.4c0-0.6,0-1.2-0.2-1.7
			c-0.1-0.3-0.3-0.5-0.6-0.6c-0.3-0.1-0.6-0.1-0.9,0c-0.3,0.1-0.6,0.3-0.7,0.6c-0.3,0.5-0.3,1-0.3,1.5c0,0.5,0,1,0.1,1.5
			c0,0.2,0.1,0.4,0.3,0.5c0.1,0.1,0.2,0.1,0.2,0.2c-0.1,0-0.2,0-0.4,0c-0.3,0-0.7,0-1,0c-0.1,0-0.2,0-0.3,0c0.1-0.1,0.2-0.1,0.3-0.2
			c0.1-0.1,0.2-0.2,0.2-0.3c0.1-0.2,0.1-0.5,0.1-0.7c0-0.6,0-1.2,0-1.7c0-0.3,0-0.5,0-0.8c0-0.1,0-0.2-0.1-0.3
			c-0.1-0.1-0.2-0.1-0.3-0.1c0.1,0,0.1-0.1,0.2-0.1c0.3-0.1,0.6-0.2,0.8-0.3c0,0.4,0,0.8,0,1.2c0,0,0.1-0.1,0.1-0.2
			C29.5,27.7,29.8,27.3,30.1,27.1z"/>
		<g id="XMLID_247_">
			<path id="XMLID_248_" class="st0" d="M37.4,27.3c0.6-0.3,1.3-0.5,2-0.5c0.4,0,0.8,0.1,1.1,0.2c0.3,0.1,0.5,0.3,0.7,0.5
				c0.2,0.3,0.2,0.6,0.2,1c0,0.7,0,1.4,0.1,2.2c0,0.2,0.1,0.5,0.3,0.6c0.1,0.1,0.2,0.1,0.3,0.2c-0.3,0-0.6,0-0.9,0
				c-0.2-0.2-0.2-0.5-0.3-0.8c-0.1,0.2-0.2,0.4-0.4,0.5c-0.3,0.3-0.7,0.4-1.1,0.4c-0.3,0-0.7,0-1-0.1c-0.3-0.1-0.6-0.3-0.8-0.6
				c-0.2-0.3-0.2-0.6-0.2-0.9c0-0.2,0.1-0.4,0.3-0.6c0.2-0.2,0.5-0.4,0.9-0.5c0.7-0.2,1.4-0.3,2.1-0.3c0.1,0,0.2,0,0.3,0
				c0-0.3,0-0.6-0.2-0.9c-0.1-0.3-0.3-0.5-0.5-0.6c-0.3-0.2-0.7-0.2-1-0.1c-0.4,0-0.9,0.3-1.1,0.6c-0.1,0.2-0.2,0.4-0.2,0.6
				c-0.1-0.1-0.1-0.2-0.1-0.3C37.5,27.7,37.4,27.5,37.4,27.3z M38.8,29.1c-0.3,0.1-0.6,0.3-0.7,0.5c-0.2,0.2-0.2,0.5-0.1,0.8
				c0,0.3,0.3,0.6,0.6,0.8c0.3,0.1,0.6,0.1,0.9,0.1c0.3,0,0.6-0.2,0.8-0.4c0.3-0.3,0.4-0.6,0.4-1c0-0.4,0-0.7,0-1.1
				C40.1,28.9,39.4,28.9,38.8,29.1z"/>
		</g>
		<path id="XMLID_246_" class="st0" d="M42.7,27.6c0.3-0.4,0.9-0.6,1.4-0.7c0.7-0.1,1.4,0,2.1,0.3c-0.1,0.2-0.1,0.3-0.2,0.5
			c0,0.1-0.1,0.2-0.1,0.4c-0.1-0.1-0.1-0.3-0.2-0.4c-0.2-0.2-0.4-0.4-0.7-0.5c-0.3-0.1-0.7-0.1-1,0c-0.3,0.1-0.6,0.3-0.7,0.6
			c-0.1,0.2-0.1,0.5,0,0.7c0.1,0.1,0.3,0.2,0.4,0.3c0.6,0.2,1.3,0.1,1.9,0.4c0.3,0.1,0.5,0.2,0.7,0.5c0.1,0.2,0.2,0.5,0.1,0.8
			c-0.1,0.3-0.3,0.6-0.5,0.8c-0.5,0.4-1.1,0.5-1.6,0.5c-0.7,0-1.4-0.1-2.1-0.4c0.1-0.3,0.2-0.7,0.3-1c0.1,0.1,0.1,0.2,0.1,0.4
			c0.2,0.4,0.6,0.7,1.1,0.8c0.4,0.1,0.7,0.1,1.1,0c0.3-0.1,0.6-0.3,0.7-0.6c0.1-0.2,0.1-0.5,0.1-0.7c0-0.2-0.2-0.4-0.4-0.5
			c-0.6-0.3-1.4-0.2-2-0.5c-0.3-0.1-0.6-0.3-0.7-0.6C42.5,28.3,42.5,27.9,42.7,27.6z"/>
		<path id="XMLID_245_" class="st0" d="M22,27.1c0.2,0,0.3,0,0.5,0c-0.1,0.3-0.2,0.6-0.3,0.9c0,0-0.1,0-0.1,0
			c-0.1-0.1-0.2-0.2-0.4-0.2c-0.3,0-0.5,0.1-0.7,0.3c-0.2,0.4-0.3,0.9-0.3,1.3c0,0.5,0,1,0.1,1.5c0,0.2,0.1,0.4,0.3,0.5
			c0.1,0.1,0.2,0.1,0.2,0.2c-0.1,0-0.2,0-0.4,0c-0.5,0-1,0-1.4,0c0-0.1,0.1-0.1,0.2-0.2c0.2-0.1,0.3-0.3,0.3-0.5
			c0.1-0.4,0.1-0.8,0.1-1.2c0-0.5,0-1,0-1.5c0-0.2,0-0.4-0.1-0.6c-0.1-0.2-0.3-0.2-0.4-0.2l0,0l0,0c0.4-0.1,0.7-0.2,1.1-0.3
			c0,0.4,0,0.9,0,1.3c0.2-0.4,0.4-0.7,0.7-1C21.6,27.2,21.8,27.1,22,27.1z"/>
		<path id="XMLID_222_" class="st0" d="M4.9,18.8c0.2,0,0.5-0.1,0.7-0.1c-0.3,0.1-0.7,0.2-1,0.3c-0.6,0.3-1.1,0.8-1.3,1.4
			c-0.1,0.3-0.2,0.6-0.2,0.9c-0.1,0.3,0,0.6,0,0.8c0,0.4,0,0.8,0.1,1.2c0.1,0.3,0.1,0.7,0.3,1c0.1,0.3,0.2,0.6,0.3,0.9
			c0.1,0.2,0.2,0.4,0.1,0.6c-0.1,0-0.2,0-0.3,0c-0.2-0.6-0.5-1.2-0.8-1.8c-0.4-0.6-0.8-1.1-1.4-1.5c-0.1-0.1-0.3-0.1-0.5-0.2
			c-0.2-0.1-0.4-0.1-0.6-0.1c0,0.1-0.1,0.1-0.1,0.2c-0.1,0.1-0.2,0-0.3-0.1c0-0.1,0-0.2,0.1-0.2c0.1-0.1,0.1-0.1,0.2,0
			c0.1,0,0.1,0.1,0.1,0.1c0.2,0,0.4,0,0.5,0c0.3,0,0.6,0.1,0.8,0.3c0.4,0.3,0.8,0.6,1.1,1c0,0,0.1,0.1,0.1,0.1
			c-0.1-0.7-0.1-1.4-0.1-2.1c0-0.2,0-0.4,0.1-0.6c0.1-0.4,0.2-0.8,0.5-1.1C3.8,19.3,4.3,18.9,4.9,18.8z"/>
		<path id="XMLID_220_" class="st0" d="M4.1,26.6c0-0.1-0.1-0.3,0-0.4c0.2,0.5,0.5,1,0.8,1.5c0.3,0.4,0.6,0.8,0.9,1.1
			c0.6,0.6,1.4,1,2.2,1.3c0,0-0.1,0.1-0.1,0.1c-0.4,0.1-0.8-0.1-1.1-0.2c-0.5-0.2-1-0.5-1.4-0.9c-0.5-0.5-0.8-1.1-1.1-1.8
			C4.2,27,4.1,26.8,4.1,26.6z"/>
		<path id="XMLID_219_" class="st0" d="M5.8,19.6c0.2,0.1,0.5,0.2,0.7,0.4c0.3,0.2,0.7,0.4,1,0.7c1.3,1,2.4,2.3,3.1,3.7
			c0.2,0.4,0.4,0.9,0.6,1.4c0.1,0.3,0.2,0.5,0.3,0.8c0.1,0.3,0.1,0.5,0.2,0.8c0.1,0.1,0,0.3,0.1,0.4c0,0.2,0,0.5,0,0.7
			c0,0.4,0,0.8-0.2,1.1c-0.2,0.6-0.6,1.2-1.1,1.5c-0.1,0.1-0.2,0.1-0.3,0.2c-0.3,0.1-0.6,0.2-0.8,0.2c-0.2,0-0.5,0-0.7,0
			c-0.3,0-0.7-0.1-1-0.2c-0.1-0.1-0.3-0.1-0.4-0.2c-1.1-0.5-2.1-1.2-3-2.1c-0.9-1-1.7-2.1-2.3-3.3c-0.1-0.2-0.2-0.3-0.3-0.5
			c0,0,0.1,0,0.1,0c0.1,0.3,0.3,0.5,0.5,0.8c0.8,1.2,1.7,2.4,2.8,3.4c0.8,0.6,1.7,1.2,2.7,1.5c0.7,0.2,1.4,0.3,2.1,0
			c0.3-0.1,0.5-0.3,0.7-0.5c0.3-0.4,0.5-0.9,0.6-1.4c0.1-0.2,0.1-0.5,0.1-0.8c0-0.4,0-0.8,0-1.2c-0.1-0.3-0.1-0.7-0.2-1
			c-0.1-0.2-0.1-0.4-0.2-0.5c-0.1-0.2-0.1-0.4-0.2-0.6c-0.3-0.8-0.8-1.5-1.3-2.1c-0.2-0.3-0.4-0.5-0.7-0.8c-0.2-0.2-0.4-0.4-0.6-0.7
			c-0.3-0.3-0.6-0.6-0.9-0.8c-0.2-0.2-0.5-0.4-0.7-0.5C6.1,19.8,5.9,19.8,5.8,19.6z"/>
	</g>
	<g id="XMLID_194_">
		<path id="XMLID_195_" class="st0" d="M48.5,21.4c-0.8,0-1.5-0.7-1.5-1.5c0-0.8,0.7-1.5,1.5-1.5c0.8,0,1.5,0.7,1.5,1.5
			C50,20.7,49.3,21.4,48.5,21.4z M48.5,18.5c-0.8,0-1.4,0.6-1.4,1.4c0,0.8,0.6,1.4,1.4,1.4c0.8,0,1.4-0.6,1.4-1.4
			C49.9,19.1,49.2,18.5,48.5,18.5z"/>
	</g>
	<g id="XMLID_190_">
		<path id="XMLID_191_" class="st0" d="M47.9,20.5v-1.3h0.6c0.1,0,0.2,0,0.3,0c0.1,0,0.1,0.1,0.2,0.1c0,0.1,0.1,0.1,0.1,0.2
			c0,0.1,0,0.2-0.1,0.2c-0.1,0.1-0.2,0.1-0.3,0.1c0,0,0.1,0,0.1,0.1c0.1,0,0.1,0.1,0.1,0.2l0.2,0.4h-0.2l-0.2-0.3
			c-0.1-0.1-0.1-0.1-0.1-0.2c0,0-0.1-0.1-0.1-0.1c0,0-0.1,0-0.1,0c0,0-0.1,0-0.1,0h-0.2v0.6H47.9z M48.1,19.8h0.4c0.1,0,0.1,0,0.2,0
			c0,0,0.1,0,0.1-0.1c0,0,0-0.1,0-0.1c0-0.1,0-0.1-0.1-0.2c0,0-0.1-0.1-0.2-0.1h-0.4V19.8L48.1,19.8z"/>
	</g>
</g>
</svg>
