<?xml version="1.0" encoding="utf-8"?>
<!-- Generator: Adobe Illustrator 19.0.0, SVG Export Plug-In . SVG Version: 6.00 Build 0)  -->
<svg version="1.1" id="Layer_1" xmlns="http://www.w3.org/2000/svg" xmlns:xlink="http://www.w3.org/1999/xlink" x="0px" y="0px"
	 viewBox="-280 372 50 50" style="enable-background:new -280 372 50 50;" xml:space="preserve">
<style type="text/css">
	.st0{fill:#272626;}
</style>
<g id="XMLID_351_">
	<g id="XMLID_139_">
		<path id="XMLID_152_" class="st0" d="M-266.8,403.9c0.1,0.1,0.1,0.1,0.2,0.1c0.9,0.6,1.7,0.6,2.2,0c0.5-0.6,0.3-1.4-0.5-2.1
			c-0.1-0.1-0.1-0.1-0.1-0.1c-0.6-0.4-1-0.9-1.4-1.4l0,0l0,0c-0.2-0.6-0.5-1.1-0.6-1.7c-0.3-1.3,0.1-2.5,0.4-3.8
			c0.3-0.9,0.9-1.7,1.3-2.5c1-1.3,2.2-2.4,3.5-3.3c1.5-0.9,3.2-1.6,4.9-2.1c0.5-0.1,1.1-0.2,1.6-0.3c1.2-0.1,2.3-0.1,3.4,0
			c0.6,0.1,1.2,0.4,1.7,0.5l0,0c1.2,0.6,2,1.6,2.5,2.9l0,0c0.2,0.9,0.1,1.7,0,2.6c-0.4,0.9-0.7,1.7-1.3,2.5
			c-0.4,0.5-0.9,0.9-1.3,1.4c-0.5,0.4-1.2,0.7-1.7,1.1c-0.4,0.1-0.9,0.2-1.3,0.3c-0.6,0-1.2,0-1.7,0c-0.9-0.1-1.2-0.3-1-0.9
			c0.1-0.4,0.2-0.7,0.3-1.1c0.6-2.4,1.2-4.8,1.9-7.3c-0.9,0.1-1.8,0.3-2.7,0.5c-0.8,0.1-1.6,0.1-2.3,0.3c-0.3,0.1-0.5,0.2-0.6,0.6
			c0,0.2,0,0.4,0.3,0.4c1,0.4,1,0.4,0.9,1.6c-0.1,0.1-0.1,0.1-0.1,0.2c-0.4,1.7-0.9,3.5-1.4,5.3c-0.4,1.5-0.7,3-1,4.5
			c-0.1,0.5-0.2,0.8,0.3,0.8c0.8,0,1.6,0.1,2.4,0.1c0.1,0,0.2,0.1,0.4,0l0,0l0,0l0,0c0.3-0.1,0.2-0.4,0.3-0.6c0.4-1,0.4-2.2,1.2-3
			c0.4,0.2,0.8,0.5,1,0.9c0.2,0.9,0.5,1.7,0.7,2.5c0.4,1.1,0.6,1.2,1.7,1.3c0.1,0,0.4,0.1,0.5,0.1c1.1,0.1,1.4-0.3,1.1-1.4
			c-0.4-0.9-0.6-1.8-1.2-2.6c0-0.4-0.6-0.9,0.3-1c0.6-0.1,1.3-0.2,1.9-0.5l0,0l0,0c1-0.2,1.9-0.6,2.7-1.4l0,0
			c0.6-0.4,1.3-0.9,1.7-1.6c2.7-2.7,2.4-7.2-0.1-8.7l0,0l0,0c-0.5-0.5-1.2-0.7-1.9-0.9c-0.8-0.3-1.7-0.5-2.5-0.6l0,0
			c-0.6-0.1-1.2-0.3-1.9-0.2c-0.2,0-0.4-0.1-0.6-0.1c-0.9-0.1-1.9-0.1-2.8,0.2c-0.6-0.1-1.2,0.1-1.7,0.3c-1.8,0.4-3.5,1.1-5,2.1
			c-1.4,0.7-2.7,1.7-3.7,2.9c-0.6,0.5-1,1.2-1.3,1.8c-0.1,0.1-0.1,0.1-0.2,0.2c-1.3,2.5-1.7,5.1-1.4,7.7
			C-268.4,401.8-267.9,403-266.8,403.9z"/>
		<path id="XMLID_151_" class="st0" d="M-264.5,400.9c0.6,0.4,0.7,0.4,0.9-0.4c0.1-0.6,0.4-1.3,0.5-1.9c0.1-0.9,0.6-1.8,0.7-2.7
			c0.1-0.3,0.2-0.6,0.3-1l0,0c0.5-1.7,0.9-3.3,1.4-5.1c-0.6,0.3-1.1,0.6-1.4,0.9c-0.2,0.1-0.4,0.2-0.5,0.4c-0.4,0.2-0.6,0.5-0.8,0.8
			l0,0c-0.5,0.4-0.9,1-1.2,1.6c-0.4,0.6-0.6,1.2-0.8,1.8c-0.2,0.4-0.3,0.7-0.4,1.1c-0.2,1.1-0.3,2.2,0.4,3.2l0,0
			c0.1,0.4,0.4,0.8,0.8,1l0,0l0,0C-264.6,400.7-264.5,400.8-264.5,400.9z"/>
		<path id="XMLID_150_" class="st0" d="M-250.2,406.3c1.3-0.6,2.2-1.6,2.7-3c0.3-1,0.3-1.9-0.4-2.8c-0.4-0.5-1.2-0.7-1.7-0.5
			c-0.6,0.3-0.8,0.8-0.6,1.4c0.1,0.4,0.2,0.9,0.3,1.4c0.1,0.8,0.1,1.4-0.5,2.1c-0.7,0.4-1.5,0.5-2.3,0.4c-0.5-0.1-1.1-0.2-1.6-0.3
			l0,0l0,0c-0.6-0.1-1.2-0.3-1.7-0.4c-0.8-0.2-1.7-0.3-2.5-0.4c-0.7-0.2-1.4-0.1-2.1-0.1c-1-0.1-2.1-0.1-2.9,0.7
			c-0.5,0.5-1.1,0.8-1.7,1c-0.5,0.1-1-0.1-1.4-0.4c-0.4-0.2-0.9-0.5-1.2-0.8c-0.4-0.4-0.8-0.4-1.2-0.1c-0.5,0.2-1.1,0.4-1.6,0.6
			c-0.6,0.1-1.3,0.1-1.5,0.9c-0.1,0.1-0.1,0.4,0.3,0.4c0.5-0.1,1,0,1.5-0.2l0,0c0.5,0,0.9-0.1,1.4-0.1c0.9,0,1.7-0.1,2.5-0.1l0,0
			l0,0c1.9,0.1,4,0.2,5.9,0.4l0,0c0.6,0.1,1.3,0.1,1.9,0.1c0.7,0.1,1.4,0.1,2.1,0.1c0.1,0.1,0.2,0.1,0.3,0.1
			c0.6,0.1,1.3,0.1,1.9,0.1l0,0l0,0c0.6,0,1.2,0,1.8,0C-251.6,406.8-250.9,406.8-250.2,406.3z"/>
		<path id="XMLID_149_" class="st0" d="M-239.6,410L-239.6,410c-0.6,0.2-0.7,0.7-0.9,1.2c-0.4,1.2-1,2.2-2.3,2.5l0,0l0,0
			c-0.9,0.1-1.9-0.2-2.7-0.6l0,0c-0.9-0.5-1.6-1.2-2.2-2c-0.4-0.6-0.7-1.2-1.1-1.9c-0.1-0.4-0.3-0.6-0.4-1c-0.4-0.9-0.4-0.9-1.4-0.6
			c-0.1,0-0.1,0.1-0.2,0.1c-0.4,0.1-0.9,0.3-1.3,0.4c-0.4,0.1-0.4,0.3-0.3,0.6c0.4,1,0.9,1.9,1.7,2.7c0.4,0.6,0.9,1.1,1.6,1.4l0,0
			c0.3,0.3,0.6,0.5,1,0.6l0,0l0,0c0.8,0.5,1.7,0.9,2.5,1.2c1.1,0.4,2.2,0.5,3.3,0.4l0,0l0,0c1.1-0.1,2-0.4,2.9-1
			c1-0.6,1.5-1.5,1.6-2.7C-237.8,410.1-238.4,409.7-239.6,410z"/>
		<path id="XMLID_148_" class="st0" d="M-255.9,411.3c-1,0-2.1,0-3.1,0.1c-0.4,0-0.4-0.2-0.4-0.6c0.2-0.8,0.4-1.7,0.6-2.5
			c0.1-0.4,0-0.6-0.4-0.6c-0.6,0-1.4-0.2-2-0.1c-0.5-0.1-0.8,0.1-0.9,0.6c-0.3,0.9-0.9,1.7-1.7,2.3c-0.6,0.4-1.3,0.6-1.9,0.8
			c-0.2,0-0.4,0.1-0.6,0.2c-0.4,0.2-0.6,0.7-0.5,1.1s0.5,0.1,0.8,0c0.2,0,0.4,0,0.6-0.1l0,0c0.6-0.1,1.3-0.1,1.9-0.1
			c1.1,0.1,2.1,0.1,3.2,0.1c-0.1,0-0.1,0-0.1,0c0.1,0,0.1,0,0.1,0c0.3,0,0.6,0,0.9,0.1l0,0l0,0l0,0c0.1,0,0.2,0.1,0.3,0.1
			c1.1,0.1,2.2-0.1,3.2-0.1c0.1,0,0.3-0.1,0.4-0.3c0.2-0.1,0.2-0.4,0.1-0.6C-255.5,411.2-255.8,411.3-255.9,411.3z"/>
		<path id="XMLID_147_" class="st0" d="M-262.2,386.4c0.4-0.2,0.9-0.3,1.2-0.6c0.9-0.4,1.9-0.6,2.5-1.6c0.9-1,1.5-2.2,2.5-3.1
			c1.1-0.7,2.2-0.5,3.2,0.1l0,0c0.6,0.6,1.3,1.2,2.1,1.6c0.6,0.4,1.1,0.3,1.6-0.2c0.4-0.5,0.5-1,0.1-1.7c-0.4-0.6-0.8-1.1-1.4-1.4
			l0,0c-0.7-0.4-1.4-0.6-2.3-0.6c-1.2-0.1-2.3,0.1-3.4,0.6l0,0c-0.9,0.4-1.9,0.9-2.7,1.5l0,0c-1,0.7-1.9,1.5-2.5,2.5
			c-0.6,0.7-0.9,1.5-1.3,2.4C-262.7,386.5-262.5,386.5-262.2,386.4z"/>
		<g id="XMLID_140_">
			<g id="XMLID_141_">
				<path id="XMLID_142_" class="st0" d="M-238.9,386.9c0,0.3-0.1,0.6-0.2,0.9c-0.1,0.3-0.4,0.5-0.6,0.6s-0.6,0.2-0.9,0.2
					c-0.3,0-0.6-0.1-0.9-0.2s-0.5-0.4-0.6-0.6c-0.1-0.3-0.2-0.6-0.2-0.9c0-0.3,0.1-0.6,0.2-0.9c0.1-0.3,0.4-0.5,0.6-0.6
					s0.6-0.2,0.9-0.2c0.3,0,0.6,0.1,0.9,0.2s0.5,0.4,0.6,0.6C-239,386.3-238.9,386.5-238.9,386.9z M-239.3,386.9
					c0-0.4-0.1-0.7-0.4-1c-0.2-0.3-0.6-0.4-0.9-0.4s-0.7,0.1-1,0.4c-0.3,0.3-0.4,0.6-0.4,1c0,0.4,0.1,0.7,0.4,1
					c0.3,0.3,0.6,0.4,1,0.4c0.4,0,0.7-0.1,1-0.4C-239.4,387.6-239.3,387.3-239.3,386.9z M-241.4,386h0.9c0.2,0,0.4,0.1,0.5,0.1
					c0.1,0.1,0.1,0.2,0.1,0.4c0,0.1-0.1,0.2-0.1,0.4c-0.1,0.1-0.2,0.1-0.4,0.2c0.1,0,0.1,0.1,0.1,0.1c0.1,0.1,0.1,0.1,0.1,0.2
					c0,0,0.1,0.2,0.3,0.6h-0.6c-0.1-0.4-0.3-0.6-0.4-0.6c-0.1-0.1-0.1-0.1-0.2-0.1c0,0,0,0-0.1,0v0.7h-0.4L-241.4,386L-241.4,386z
					 M-241,386.8h0.2c0.1,0,0.2,0,0.3-0.1c0.1-0.1,0.1-0.1,0.1-0.1s0-0.1-0.1-0.1c-0.1-0.1-0.1-0.1-0.3-0.1h-0.2V386.8z"/>
			</g>
		</g>
	</g>
</g>
</svg>
