<?xml version="1.0" encoding="utf-8"?>
<!-- Generator: Adobe Illustrator 19.0.0, SVG Export Plug-In . SVG Version: 6.00 Build 0)  -->
<svg version="1.1" id="Layer_1" xmlns="http://www.w3.org/2000/svg" xmlns:xlink="http://www.w3.org/1999/xlink" x="0px" y="0px"
	 viewBox="0 0 50 50" style="enable-background:new 0 0 50 50;" xml:space="preserve">
<style type="text/css">
	.st0{fill:#272626;}
</style>
<g id="XMLID_481_">
	<g id="XMLID_482_">
		<path id="XMLID_483_" class="st0" d="M4.9,33.3H1.7l-1.1,2.8H0l3.2-8h0.4l3.1,8H6L4.9,33.3z M1.9,32.8h2.8L3.7,30
			c-0.1-0.2-0.2-0.5-0.3-0.9C3.3,29.4,3.1,29.7,3,30L1.9,32.8z"/>
		<path id="XMLID_486_" class="st0" d="M7.6,30.2V34c0,0.6,0.1,1,0.4,1.3c0.2,0.3,0.6,0.4,1.2,0.4c0.7,0,1.2-0.2,1.5-0.5
			c0.3-0.4,0.5-0.9,0.5-1.7v-3.3h0.5v5.9h-0.5l-0.1-0.8h0c-0.4,0.6-1.1,0.9-2,0.9c-1.3,0-2-0.7-2-2.2v-3.9H7.6z"/>
		<path id="XMLID_488_" class="st0" d="M16.7,34.6c0,0.5-0.2,0.9-0.6,1.2c-0.4,0.3-1,0.4-1.7,0.4c-0.8,0-1.4-0.1-1.9-0.4v-0.6
			c0.6,0.3,1.2,0.4,1.9,0.4c0.6,0,1-0.1,1.3-0.3c0.3-0.2,0.5-0.5,0.5-0.8c0-0.3-0.1-0.5-0.4-0.7c-0.2-0.2-0.6-0.4-1.2-0.6
			c-0.6-0.2-1-0.4-1.2-0.6c-0.2-0.2-0.4-0.3-0.5-0.5c-0.1-0.2-0.2-0.4-0.2-0.7c0-0.4,0.2-0.8,0.6-1c0.4-0.3,0.9-0.4,1.6-0.4
			c0.6,0,1.2,0.1,1.8,0.4l-0.2,0.5c-0.6-0.2-1.1-0.4-1.6-0.4c-0.5,0-0.9,0.1-1.1,0.2c-0.3,0.2-0.4,0.4-0.4,0.7
			c0,0.3,0.1,0.6,0.3,0.7c0.2,0.2,0.6,0.4,1.3,0.6c0.5,0.2,0.9,0.4,1.2,0.5c0.2,0.2,0.4,0.3,0.5,0.5C16.7,34.1,16.7,34.3,16.7,34.6z
			"/>
		<path id="XMLID_113_" class="st0" d="M21.4,34.6c0,0.5-0.2,0.9-0.6,1.2c-0.4,0.3-1,0.4-1.7,0.4c-0.8,0-1.4-0.1-1.9-0.4v-0.6
			c0.6,0.3,1.2,0.4,1.9,0.4c0.6,0,1-0.1,1.3-0.3c0.3-0.2,0.5-0.5,0.5-0.8c0-0.3-0.1-0.5-0.4-0.7c-0.2-0.2-0.6-0.4-1.2-0.6
			c-0.6-0.2-1-0.4-1.2-0.6c-0.2-0.2-0.4-0.3-0.5-0.5c-0.1-0.2-0.2-0.4-0.2-0.7c0-0.4,0.2-0.8,0.6-1c0.4-0.3,0.9-0.4,1.6-0.4
			c0.6,0,1.2,0.1,1.8,0.4L21,30.9c-0.6-0.2-1.1-0.4-1.6-0.4c-0.5,0-0.9,0.1-1.1,0.2c-0.3,0.2-0.4,0.4-0.4,0.7c0,0.3,0.1,0.6,0.3,0.7
			c0.2,0.2,0.6,0.4,1.3,0.6c0.5,0.2,0.9,0.4,1.2,0.5c0.2,0.2,0.4,0.3,0.5,0.5C21.3,34.1,21.4,34.3,21.4,34.6z"/>
		<path id="XMLID_492_" class="st0" d="M22.3,28.6c0-0.3,0.1-0.5,0.3-0.5c0.1,0,0.2,0,0.3,0.1c0.1,0.1,0.1,0.2,0.1,0.4
			c0,0.2,0,0.3-0.1,0.4c-0.1,0.1-0.2,0.1-0.3,0.1C22.4,29.1,22.3,28.9,22.3,28.6z M22.9,36.1h-0.5v-5.9h0.5V36.1z"/>
		<path id="XMLID_110_" class="st0" d="M26.7,36.2c-0.9,0-1.5-0.3-2-0.8c-0.5-0.5-0.7-1.3-0.7-2.2c0-0.9,0.2-1.7,0.7-2.3
			c0.5-0.6,1.1-0.8,1.9-0.8c0.7,0,1.2,0.2,1.6,0.7c0.4,0.5,0.6,1.1,0.6,2v0.4h-4.2c0,0.8,0.2,1.4,0.6,1.9c0.4,0.4,0.9,0.6,1.6,0.6
			c0.3,0,0.6,0,0.9-0.1c0.3,0,0.6-0.1,1-0.3v0.5c-0.3,0.1-0.6,0.2-0.9,0.3C27.3,36.2,27,36.2,26.7,36.2z M26.5,30.6
			c-0.6,0-1,0.2-1.4,0.6c-0.3,0.4-0.5,0.9-0.6,1.6h3.6c0-0.7-0.1-1.2-0.4-1.6C27.4,30.8,27,30.6,26.5,30.6z"/>
	</g>
	<g id="XMLID_2_">
		<path id="XMLID_108_" class="st0" d="M34.7,36.1l-0.8-2.2h-3l-0.8,2.2h-1.4l3-8h1.4l3,8H34.7z M33.6,32.8l-0.7-2.2
			c-0.1-0.1-0.1-0.4-0.2-0.7c-0.1-0.3-0.2-0.5-0.2-0.7c-0.1,0.4-0.2,0.9-0.4,1.5l-0.7,2.1H33.6z"/>
		<path id="XMLID_106_" class="st0" d="M37.7,36.1h-1.3v-8.4h1.3V36.1z"/>
		<path id="XMLID_104_" class="st0" d="M40.2,32.9l0.7-0.9l1.8-1.9h1.5l-2.4,2.6l2.6,3.4h-1.5l-1.9-2.6l-0.7,0.6v2.1H39v-8.4h1.3
			v4.1L40.2,32.9L40.2,32.9z"/>
		<path id="XMLID_103_" class="st0" d="M48.5,36.1l-0.3-0.8h0c-0.3,0.4-0.6,0.6-0.9,0.7c-0.3,0.1-0.7,0.2-1.1,0.2
			c-0.6,0-1-0.2-1.4-0.5c-0.3-0.3-0.5-0.8-0.5-1.4c0-0.6,0.2-1.1,0.7-1.4c0.5-0.3,1.2-0.5,2.1-0.5l1,0v-0.3c0-0.4-0.1-0.7-0.3-0.9
			c-0.2-0.2-0.5-0.3-0.8-0.3c-0.3,0-0.6,0-0.9,0.1c-0.3,0.1-0.6,0.2-0.8,0.3L45,30.5c0.3-0.2,0.7-0.3,1.1-0.4
			c0.4-0.1,0.8-0.1,1.1-0.1c0.8,0,1.3,0.2,1.7,0.5c0.4,0.3,0.6,0.9,0.6,1.6v4H48.5z M46.6,35.2c0.5,0,0.8-0.1,1.1-0.4
			c0.3-0.3,0.4-0.6,0.4-1.1v-0.5l-0.8,0c-0.6,0-1,0.1-1.3,0.3c-0.3,0.2-0.4,0.5-0.4,0.8c0,0.3,0.1,0.5,0.2,0.6
			C46.1,35.2,46.3,35.2,46.6,35.2z"/>
	</g>
	<g>
		<path class="st0" d="M15.8,37.1c0.4,0,0.6,0.2,0.6,0.5c0,0.3-0.2,0.5-0.6,0.5h-0.4v0.4h-0.2v-1.4H15.8z M15.4,37.9h0.4
			c0.3,0,0.4-0.1,0.4-0.3c0-0.2-0.1-0.3-0.4-0.3h-0.4V37.9z"/>
		<path class="st0" d="M16.7,37.7c0.1-0.2,0.2-0.2,0.4-0.2v0.2c-0.2,0-0.4,0.1-0.4,0.3v0.6h-0.2v-1.1h0.2V37.7z"/>
		<path class="st0" d="M18.1,38h-0.9c0,0.2,0.2,0.3,0.4,0.3c0.1,0,0.2,0,0.3-0.1l0.1,0.1c-0.1,0.1-0.3,0.2-0.4,0.2
			c-0.3,0-0.5-0.2-0.5-0.5c0-0.3,0.2-0.5,0.5-0.5C17.9,37.4,18.1,37.7,18.1,38z M17.9,37.9c0-0.2-0.1-0.3-0.4-0.3
			c-0.2,0-0.3,0.1-0.4,0.3H17.9z"/>
		<path class="st0" d="M20,37.9v0.7h-0.2v-0.6c0-0.2-0.1-0.3-0.3-0.3c-0.2,0-0.3,0.2-0.3,0.4v0.5H19v-0.6c0-0.2-0.1-0.3-0.3-0.3
			c-0.2,0-0.4,0.2-0.4,0.4v0.5h-0.2v-1.1h0.2v0.2c0.1-0.2,0.2-0.2,0.4-0.2c0.2,0,0.3,0.1,0.4,0.3c0.1-0.2,0.2-0.3,0.4-0.3
			C19.9,37.4,20,37.6,20,37.9z"/>
		<path class="st0" d="M20.4,37.1c0,0.1,0,0.1-0.1,0.1c-0.1,0-0.1,0-0.1-0.1s0-0.1,0.1-0.1C20.4,37,20.4,37.1,20.4,37.1z M20.3,38.5
			v-1.1h0.2v1.1H20.3z"/>
		<path class="st0" d="M21.6,38.5h-0.2v-0.2c-0.1,0.2-0.2,0.2-0.4,0.2c-0.2,0-0.4-0.2-0.4-0.4v-0.7h0.2v0.6c0,0.2,0.1,0.3,0.3,0.3
			c0.2,0,0.4-0.2,0.4-0.4v-0.5h0.2V38.5z"/>
		<path class="st0" d="M23.7,37.9v0.7h-0.2v-0.6c0-0.2-0.1-0.3-0.3-0.3c-0.2,0-0.3,0.2-0.3,0.4v0.5h-0.2v-0.6c0-0.2-0.1-0.3-0.3-0.3
			c-0.2,0-0.4,0.2-0.4,0.4v0.5h-0.2v-1.1h0.2v0.2c0.1-0.2,0.2-0.2,0.4-0.2c0.2,0,0.3,0.1,0.4,0.3c0.1-0.2,0.2-0.3,0.4-0.3
			C23.5,37.4,23.7,37.6,23.7,37.9z"/>
		<path class="st0" d="M24.5,38.2l-0.2,0.4h-0.2l0.6-1.4H25l0.6,1.4h-0.2l-0.2-0.4H24.5z M24.9,37.3L24.6,38h0.6L24.9,37.3z"/>
		<path class="st0" d="M25.7,38.5V37h0.2v1.5H25.7z"/>
		<path class="st0" d="M26.4,38.2v0.3h-0.2V37h0.2v1l0.5-0.5h0.2l-0.4,0.4l0.4,0.7H27L26.6,38L26.4,38.2z"/>
		<path class="st0" d="M27.9,38.4c-0.1,0.1-0.2,0.2-0.4,0.2c-0.2,0-0.4-0.1-0.4-0.3c0-0.2,0.1-0.3,0.4-0.3h0.4v-0.1
			c0-0.2-0.1-0.2-0.3-0.2c-0.1,0-0.2,0-0.3,0.1l-0.1-0.1c0.1-0.1,0.3-0.1,0.4-0.1c0.3,0,0.4,0.1,0.4,0.4l0,0.7h-0.2V38.4z
			 M27.9,38.2V38h-0.3c-0.2,0-0.3,0.1-0.3,0.2c0,0.1,0.1,0.2,0.2,0.2C27.7,38.4,27.8,38.3,27.9,38.2z"/>
		<path class="st0" d="M28.3,38.5V37h0.2v1.5H28.3z"/>
		<path class="st0" d="M28.9,37.1c0,0.1,0,0.1-0.1,0.1c-0.1,0-0.1,0-0.1-0.1s0-0.1,0.1-0.1C28.9,37,28.9,37.1,28.9,37.1z M28.7,38.5
			v-1.1h0.2v1.1H28.7z"/>
		<path class="st0" d="M30.2,37.9v0.7H30v-0.6c0-0.2-0.1-0.3-0.3-0.3c-0.2,0-0.3,0.1-0.4,0.3v0.6h-0.2v-1.1h0.2v0.2
			c0.1-0.2,0.2-0.2,0.4-0.2C30,37.4,30.2,37.6,30.2,37.9z"/>
		<path class="st0" d="M31.3,38h-0.9c0,0.2,0.2,0.3,0.4,0.3c0.1,0,0.2,0,0.3-0.1l0.1,0.1c-0.1,0.1-0.3,0.2-0.4,0.2
			c-0.3,0-0.5-0.2-0.5-0.5c0-0.3,0.2-0.5,0.5-0.5C31.2,37.4,31.3,37.7,31.3,38z M31.2,37.9c0-0.2-0.1-0.3-0.4-0.3
			c-0.2,0-0.3,0.1-0.4,0.3H31.2z"/>
		<path class="st0" d="M33.2,38.5l-0.4-1.2l-0.4,1.2h-0.2l-0.5-1.4h0.2l0.4,1.2l0.4-1.2l0.2,0l0.4,1.2l0.4-1.2h0.2l-0.5,1.4H33.2z"
			/>
		<path class="st0" d="M34.5,38.4c-0.1,0.1-0.2,0.2-0.4,0.2c-0.2,0-0.4-0.1-0.4-0.3c0-0.2,0.1-0.3,0.4-0.3h0.4v-0.1
			c0-0.2-0.1-0.2-0.3-0.2c-0.1,0-0.2,0-0.3,0.1l-0.1-0.1c0.1-0.1,0.3-0.1,0.4-0.1c0.3,0,0.4,0.1,0.4,0.4l0,0.7h-0.2V38.4z
			 M34.5,38.2V38h-0.3c-0.2,0-0.3,0.1-0.3,0.2c0,0.1,0.1,0.2,0.2,0.2C34.3,38.4,34.4,38.3,34.5,38.2z"/>
		<path class="st0" d="M35.4,38.4c-0.1,0.1-0.2,0.1-0.2,0.1c-0.2,0-0.3-0.1-0.3-0.3v-0.6h-0.2v-0.1h0.2v-0.3h0.2v0.3l0.3,0v0.1h-0.3
			v0.6c0,0.1,0.1,0.2,0.1,0.2c0.1,0,0.1,0,0.2-0.1L35.4,38.4z"/>
		<path class="st0" d="M36.5,38h-0.9c0,0.2,0.2,0.3,0.4,0.3c0.1,0,0.2,0,0.3-0.1l0.1,0.1c-0.1,0.1-0.3,0.2-0.4,0.2
			c-0.3,0-0.5-0.2-0.5-0.5c0-0.3,0.2-0.5,0.5-0.5C36.3,37.4,36.5,37.7,36.5,38z M36.3,37.9c0-0.2-0.1-0.3-0.4-0.3
			c-0.2,0-0.3,0.1-0.4,0.3H36.3z"/>
		<path class="st0" d="M36.8,37.7c0.1-0.2,0.2-0.2,0.4-0.2v0.2c-0.2,0-0.4,0.1-0.4,0.3v0.6h-0.2v-1.1h0.2V37.7z"/>
		<path class="st0" d="M37.9,37.3v0.1h0.3v0.1h-0.3v0.9h-0.2v-0.9h-0.1v-0.1h0.1v-0.1c0-0.2,0.2-0.4,0.3-0.4c0.1,0,0.2,0,0.2,0.1
			l-0.1,0.1c0,0-0.1-0.1-0.2-0.1C38,37.2,37.9,37.2,37.9,37.3z"/>
		<path class="st0" d="M38.5,37.7c0.1-0.2,0.2-0.2,0.4-0.2v0.2c-0.2,0-0.4,0.1-0.4,0.3v0.6h-0.2v-1.1h0.2V37.7z"/>
		<path class="st0" d="M39.9,38c0,0.3-0.2,0.5-0.5,0.5c-0.3,0-0.5-0.2-0.5-0.5c0-0.3,0.2-0.5,0.5-0.5C39.7,37.4,39.9,37.7,39.9,38z
			 M39,38c0,0.2,0.2,0.4,0.4,0.4c0.2,0,0.4-0.2,0.4-0.4c0-0.2-0.2-0.4-0.4-0.4C39.2,37.6,39,37.8,39,38z"/>
		<path class="st0" d="M41.9,37.9v0.7h-0.2v-0.6c0-0.2-0.1-0.3-0.3-0.3c-0.2,0-0.3,0.2-0.3,0.4v0.5h-0.2v-0.6c0-0.2-0.1-0.3-0.3-0.3
			c-0.2,0-0.4,0.2-0.4,0.4v0.5h-0.2v-1.1h0.2v0.2c0.1-0.2,0.2-0.2,0.4-0.2c0.2,0,0.3,0.1,0.4,0.3c0.1-0.2,0.2-0.3,0.4-0.3
			C41.7,37.4,41.9,37.6,41.9,37.9z"/>
		<path class="st0" d="M42.7,38.2l-0.2,0.4h-0.2l0.6-1.4h0.2l0.6,1.4h-0.2l-0.2-0.4H42.7z M43.1,37.3L42.8,38h0.6L43.1,37.3z"/>
		<path class="st0" d="M44.8,38.5h-0.2v-0.2c-0.1,0.2-0.2,0.2-0.4,0.2c-0.2,0-0.4-0.2-0.4-0.4v-0.7H44v0.6c0,0.2,0.1,0.3,0.3,0.3
			c0.2,0,0.4-0.2,0.4-0.4v-0.5h0.2V38.5z"/>
		<path class="st0" d="M45.7,37.5l-0.1,0.1c-0.1-0.1-0.2-0.1-0.3-0.1c-0.1,0-0.2,0-0.2,0.1c0,0.2,0.6,0.1,0.6,0.5
			c0,0.2-0.2,0.3-0.4,0.3c-0.2,0-0.3-0.1-0.4-0.2l0.1-0.1c0.1,0.1,0.2,0.1,0.4,0.1c0.1,0,0.2,0,0.2-0.2c0-0.3-0.6-0.1-0.6-0.5
			c0-0.2,0.2-0.3,0.4-0.3C45.5,37.4,45.6,37.5,45.7,37.5z"/>
		<path class="st0" d="M46.5,38.4c-0.1,0.1-0.2,0.1-0.2,0.1c-0.2,0-0.3-0.1-0.3-0.3v-0.6h-0.2v-0.1H46v-0.3h0.2v0.3l0.3,0v0.1h-0.3
			v0.6c0,0.1,0.1,0.2,0.1,0.2c0.1,0,0.1,0,0.2-0.1L46.5,38.4z"/>
		<path class="st0" d="M46.8,37.7c0.1-0.2,0.2-0.2,0.4-0.2v0.2c-0.2,0-0.4,0.1-0.4,0.3v0.6h-0.2v-1.1h0.2V37.7z"/>
		<path class="st0" d="M47.9,38.4c-0.1,0.1-0.2,0.2-0.4,0.2c-0.2,0-0.4-0.1-0.4-0.3c0-0.2,0.1-0.3,0.4-0.3h0.4v-0.1
			c0-0.2-0.1-0.2-0.3-0.2c-0.1,0-0.2,0-0.3,0.1l-0.1-0.1c0.1-0.1,0.3-0.1,0.4-0.1c0.3,0,0.4,0.1,0.4,0.4l0,0.7h-0.2V38.4z
			 M47.9,38.2V38h-0.3c-0.2,0-0.3,0.1-0.3,0.2c0,0.1,0.1,0.2,0.2,0.2C47.7,38.4,47.8,38.3,47.9,38.2z"/>
		<path class="st0" d="M48.3,38.5V37h0.2v1.5H48.3z"/>
		<path class="st0" d="M48.9,37.1c0,0.1,0,0.1-0.1,0.1s-0.1,0-0.1-0.1s0-0.1,0.1-0.1S48.9,37.1,48.9,37.1z M48.7,38.5v-1.1h0.2v1.1
			H48.7z"/>
		<path class="st0" d="M49.8,38.4c-0.1,0.1-0.2,0.2-0.4,0.2c-0.2,0-0.4-0.1-0.4-0.3c0-0.2,0.1-0.3,0.4-0.3h0.4v-0.1
			c0-0.2-0.1-0.2-0.3-0.2c-0.1,0-0.2,0-0.3,0.1l-0.1-0.1c0.1-0.1,0.3-0.1,0.4-0.1c0.3,0,0.4,0.1,0.4,0.4l0,0.7h-0.2V38.4z
			 M49.8,38.2V38h-0.3c-0.2,0-0.3,0.1-0.3,0.2c0,0.1,0.1,0.2,0.2,0.2C49.7,38.4,49.8,38.3,49.8,38.2z"/>
	</g>
	<g id="XMLID_510_">
		<path id="XMLID_511_" class="st0" d="M23.1,22.7c0.2-0.3,0.4-0.6,0.5-1c0.4-1.1,1.2-1.8,2.2-2.3c1.2-0.5,2-1.3,2.5-2.5
			c0.2-0.6,0.6-1.1,1.1-1.6c0.1-0.1,0.3-0.2,0.2-0.4c-0.1-0.2-0.2-0.3-0.5-0.3c-0.7,0.5-1.2,1.1-1.5,1.9c-0.4,1.1-1.2,1.8-2.2,2.2
			c-0.7,0.3-1.3,0.8-1.8,1.3c-0.4,0.4-0.6,0.9-0.8,1.4c-0.3,0.6-0.7,1.2-1.3,1.6c-0.3,0.2-0.4,0.5-0.2,0.7c0.1,0.2,0.4,0.2,0.7,0
			C22.5,23.4,22.8,23,23.1,22.7z"/>
		<path id="XMLID_512_" class="st0" d="M21.5,20.1c0.1-0.1,0.1-0.2,0.1-0.3c0.4-1,1.1-1.8,2-2.2c0.1-0.1,0.3-0.1,0.4-0.2
			c0.1,0,0.1,0,0.1-0.1c0.2-0.1,0.4-0.2,0.6-0.4l0,0l0,0c0.7-0.5,1.2-1.1,1.6-1.9c0.3-0.7,0.7-1.3,1.3-1.8c0.2-0.1,0.2-0.3,0.3-0.4
			c-0.2-0.4-0.4-0.4-0.7-0.1c-0.6,0.5-1.2,1.1-1.5,1.9c-0.2,0.6-0.6,1.1-1.1,1.6c-0.4,0.4-0.9,0.5-1.4,0.8c-0.4,0.1-0.7,0.4-1,0.6
			c-0.2,0.1-0.3,0.2-0.4,0.4c-0.1,0.1-0.2,0.2-0.3,0.3c-0.4,0.5-0.6,1.1-0.8,1.6c-0.1,0.2-0.2,0.5,0.1,0.6
			C21.2,20.6,21.4,20.3,21.5,20.1z"/>
		<path id="XMLID_513_" class="st0" d="M21.5,22.3c0.1-0.2,0.3-0.3,0.5-0.5c0.4-0.5,0.7-1.1,0.9-1.7v0l0,0c0.5-0.9,1.3-1.5,2.2-1.9
			c1-0.4,1.7-1.1,2.1-2c0.4-0.8,0.8-1.7,1.6-2.2c0.2-0.1,0.2-0.3,0.1-0.5c-0.1-0.2-0.3-0.2-0.5-0.1c-0.1,0-0.2,0.1-0.3,0.2
			c-0.6,0.5-1,1.1-1.3,1.9c-0.3,0.9-1,1.5-1.8,2c-0.4,0.2-0.9,0.4-1.3,0.6c-0.9,0.7-1.5,1.6-1.9,2.6c-0.2,0.3-0.4,0.6-0.7,0.9
			c-0.2,0.2-0.3,0.4-0.1,0.7C21.2,22.6,21.3,22.5,21.5,22.3z"/>
		<path id="XMLID_514_" class="st0" d="M31.9,21.1c-0.2-0.2-0.4,0-0.5,0.2c-0.2,0.2-0.3,0.5-0.5,0.6c0,0-0.1,0.1-0.1,0.1
			c-0.1,0.1-0.1,0.1-0.2,0.2c-0.1,0.1-0.1,0.1-0.2,0.1c0,0-0.1,0.1-0.1,0.1c0,0-0.1,0.1-0.1,0.1c-0.3,0.3-0.8,0.5-1.2,0.7
			c-0.1,0-0.1,0.1-0.2,0.1c-0.2,0.1-0.4,0.3-0.6,0.4c-0.1,0-0.1,0.1-0.2,0.1c-0.5,0.4-0.8,1.2-1.1,1.8c0,0.1-0.1,0.1-0.1,0.2
			c0,0.1-0.1,0.1-0.1,0.2c-0.1,0.4,0.5,0.6,0.6,0.3c0.1-0.2,0.2-0.4,0.3-0.5c0-0.1,0.1-0.1,0.1-0.2c0.2-0.3,0.4-0.7,0.6-1
			c0-0.1,0.1-0.1,0.1-0.1c0.1-0.1,0.2-0.2,0.3-0.3c0,0,0.1-0.1,0.1-0.1c0.6-0.4,1.3-0.6,1.8-1.1c0,0,0.1-0.1,0.1-0.1
			c0.2-0.2,0.5-0.4,0.7-0.7c0,0,0.1-0.1,0.1-0.1c0.1-0.2,0.3-0.3,0.4-0.5C32.1,21.5,32.1,21.3,31.9,21.1z"/>
		<path id="XMLID_515_" class="st0" d="M24.7,22.5c0.4-1,1.1-1.6,2.1-2c1.2-0.5,2.1-1.3,2.6-2.6c0.2-0.5,0.5-1,0.9-1.4
			c0.2-0.2,0.3-0.4,0.1-0.6c-0.2-0.1-0.4-0.1-0.6,0.1c-0.5,0.5-0.8,1-1.1,1.6c-0.4,1-1.1,1.7-2.2,2.2c-0.2,0.1-0.5,0.2-0.7,0.3
			c-0.9,0.5-1.5,1.3-1.9,2.2c-0.3,0.8-0.8,1.4-1.5,1.9c-0.2,0.1-0.3,0.3-0.2,0.5c0.2,0.2,0.4,0.2,0.6,0.1c0.2-0.1,0.4-0.3,0.6-0.5
			C24,23.8,24.4,23.2,24.7,22.5z"/>
		<path id="XMLID_516_" class="st0" d="M27.7,21.5c1.1-0.4,1.9-1.2,2.5-2.2c0.2-0.6,0.5-1.2,1-1.7c0.2-0.2,0.3-0.4,0.1-0.6
			c-0.2-0.2-0.4-0.1-0.6,0.1c-0.4,0.4-0.7,1-1,1.5c-0.4,0.9-1,1.6-1.9,2c-0.9,0.4-1.7,1-2.3,1.7c-0.2,0.3-0.4,0.6-0.5,1
			c-0.3,0.8-0.8,1.4-1.5,1.8c-0.1,0.2-0.2,0.4,0,0.6c0.2,0.2,0.4,0.1,0.6-0.1c0.7-0.6,1.3-1.2,1.6-2.1C26,22.6,26.7,21.9,27.7,21.5z
			"/>
		<path id="XMLID_517_" class="st0" d="M28.7,22.4c0.3-0.1,0.5-0.2,0.8-0.4c1.2-0.7,1.8-1.9,2.3-3c0.1-0.2,0-0.3-0.2-0.4
			c-0.2-0.1-0.3-0.1-0.5,0c-0.1,0.1-0.1,0.2-0.2,0.2c0,0.1,0,0.1-0.1,0.1c-0.4,1.3-1.3,2.2-2.6,2.8c-1.1,0.5-1.9,1.3-2.4,2.5
			c-0.2,0.5-0.5,1-0.9,1.3c-0.3,0.3-0.3,0.5,0.1,0.8c0.3,0,0.4-0.2,0.6-0.4c0.4-0.5,0.7-1,1-1.6C27.1,23.5,27.8,22.9,28.7,22.4z"/>
		<path id="XMLID_518_" class="st0" d="M22.6,16.6c1.3-0.4,2.2-1.3,2.7-2.5c0.3-0.8,0.8-1.4,1.4-1.9c0.1-0.1,0.2-0.2,0.2-0.4
			c0-0.1-0.1-0.2-0.2-0.3c-0.1-0.1-0.3-0.1-0.4,0c-0.7,0.5-1.3,1.2-1.6,2.1c-0.2,0.5-0.5,0.9-0.8,1.3c-0.4,0.5-1,0.7-1.6,1
			c-0.2,0.1-0.3,0.3-0.2,0.5C22.3,16.6,22.4,16.7,22.6,16.6z"/>
		<path id="XMLID_519_" class="st0" d="M30.7,23.8c-0.2,0-0.4,0.1-0.6,0.2c-0.1,0-0.1,0-0.2,0.1c-0.4,0.1-0.8,0.4-1,0.8
			c0,0-0.1,0.1-0.1,0.2c-0.3,0.4-0.5,1,0.1,1.1c0.1,0,0.2,0,0.3-0.1c0,0,0.1-0.1,0.1-0.1c0.4-0.5,0.8-1,1.5-1.3c0.1,0,0.1,0,0.2,0
			c0.1,0,0.1-0.1,0.1-0.1c0-0.1,0.1-0.1,0.1-0.2c0.1-0.1,0-0.4-0.3-0.4C30.7,23.8,30.7,23.8,30.7,23.8z"/>
	</g>
</g>
</svg>
