<?xml version="1.0" encoding="utf-8"?>
<!-- Generator: Adobe Illustrator 19.0.0, SVG Export Plug-In . SVG Version: 6.00 Build 0)  -->
<svg version="1.1" id="Layer_1" xmlns="http://www.w3.org/2000/svg" xmlns:xlink="http://www.w3.org/1999/xlink" x="0px" y="0px"
	 viewBox="0 0 50 50" style="enable-background:new 0 0 50 50;" xml:space="preserve">
<style type="text/css">
	.st0{fill:#272626;}
</style>
<g id="XMLID_152_">
	<path id="XMLID_188_" class="st0" d="M7,26.7c0,1-0.8,1.5-2.4,1.5H0.3C0.1,28.2,0,28,0,27.8c0-0.2,0.1-0.4,0.3-0.4h4.4
		c0.9,0,1.3-0.3,1.3-0.8v-0.5c0-0.6-0.5-0.8-1.6-0.8H2.5c-1.7,0-2.5-0.4-2.5-1.3v-0.6c0-1,0.7-1.5,2.2-1.5h1.1
		c0.2,0,0.4,0.1,0.4,0.4c0,0.2-0.1,0.4-0.4,0.4H2.1c-0.7,0-1.1,0.3-1.1,0.8v0.5c0,0.5,0.5,0.7,1.4,0.7h2c0.9,0,1.5,0.1,2,0.4
		C6.8,25.1,7,25.5,7,26V26.7z"/>
	<path id="XMLID_186_" class="st0" d="M10,28.2c-1.6,0-2.4-0.5-2.4-1.4v-2c0-1,0.7-1.4,2.2-1.4h3.3c0.3,0,0.4,0.1,0.4,0.4
		c0,0.3-0.1,0.4-0.4,0.4H9.7c-0.8,0-1.2,0.2-1.2,0.7v2c0,0.5,0.5,0.7,1.4,0.7h3.2c0.2,0,0.4,0.1,0.4,0.4c0,0.2-0.1,0.3-0.4,0.3H10z"
		/>
	<path id="XMLID_183_" class="st0" d="M20.6,26.7c0,1-0.7,1.4-2.1,1.4h-2.6c-1.5,0-2.2-0.5-2.2-1.4v-0.6c0-0.9,0.7-1.4,2.1-1.4h3.9
		c-0.1-0.5-0.4-0.7-1.1-0.7h-5.6c-0.2,0-0.3-0.1-0.3-0.4c0-0.2,0.1-0.4,0.3-0.4h5.5c1.4,0,2.1,0.5,2.1,1.5V26.7z M19.8,25.5h-4.1
		c-0.7,0-1,0.2-1,0.7v0.7c0,0.4,0.4,0.6,1.1,0.6h3c0.7,0,1.1-0.3,1.1-0.9V25.5z"/>
	<path id="XMLID_181_" class="st0" d="M27.8,27.8c0,0.3-0.2,0.4-0.5,0.4c-0.3,0-0.5-0.1-0.5-0.4v-3.2c0-0.4-0.4-0.6-1.2-0.6h-2.2
		c-0.8,0-1.2,0.2-1.2,0.6v3.2c0,0.3-0.1,0.4-0.4,0.4c-0.3,0-0.4-0.1-0.4-0.4v-3.2c0-0.9,0.8-1.3,2.4-1.3h1.7c1.6,0,2.4,0.4,2.4,1.3
		V27.8z"/>
	<path id="XMLID_168_" class="st0" d="M36.2,26.5c0,1.1-0.8,1.7-2.5,1.7h-4.9c-0.2,0-0.3-0.1-0.3-0.3v-5.8c0-0.2,0.1-0.3,0.3-0.3
		h4.9c1.6,0,2.5,0.5,2.5,1.6V26.5z M35.3,23.3c0-0.6-0.5-0.8-1.5-0.8h-4.2v4.9h4.2c1,0,1.6-0.3,1.6-0.9V23.3z"/>
	<path id="XMLID_158_" class="st0" d="M43.4,25.7c0,0.3-0.1,0.4-0.4,0.4h-5.3v0.6c0,0.4,0.5,0.7,1.4,0.7h5c0.3,0,0.4,0.1,0.4,0.4
		c0,0.3-0.1,0.4-0.4,0.4h-4.8c-1.7,0-2.5-0.5-2.5-1.5v-1.9c0-1,0.8-1.5,2.5-1.5h2c1.4,0,2.1,0.4,2.1,1.3V25.7z M37.7,25.4h4.8v-0.7
		c0-0.4-0.3-0.7-1-0.7h-2.4c-0.9,0-1.4,0.2-1.4,0.7V25.4z"/>
	<path id="XMLID_153_" class="st0" d="M46.8,25.2l2.5-1.9c0.1-0.1,0.2-0.1,0.3-0.1c0.1,0,0.2,0,0.3,0.1c0.1,0.1,0.1,0.2,0.1,0.3
		c0,0.1,0,0.1,0,0.2c0,0.1-0.1,0.1-0.1,0.2l-2.3,1.8l2.3,1.8c0.1,0.1,0.1,0.2,0.1,0.3c0,0.1,0,0.2-0.1,0.3c-0.1,0.1-0.2,0.1-0.3,0.1
		c-0.1,0-0.1,0-0.2-0.1l-2.5-1.9l-2.5,1.9c-0.1,0.1-0.1,0.1-0.2,0.1c-0.1,0-0.2,0-0.3-0.1c-0.1-0.1-0.1-0.2-0.1-0.3
		c0-0.1,0-0.2,0.1-0.3l2.3-1.8L43.8,24c-0.1-0.1-0.2-0.2-0.2-0.3c0-0.1,0-0.2,0.1-0.3c0.1-0.1,0.2-0.1,0.3-0.1c0,0,0.1,0,0.1,0
		c0.1,0,0.1,0,0.1,0.1L46.8,25.2z"/>
</g>
</svg>
