<?xml version="1.0" encoding="utf-8"?>
<!-- Generator: Adobe Illustrator 19.0.0, SVG Export Plug-In . SVG Version: 6.00 Build 0)  -->
<svg version="1.1" id="Layer_1" xmlns="http://www.w3.org/2000/svg" xmlns:xlink="http://www.w3.org/1999/xlink" x="0px" y="0px"
	 viewBox="0 0 50 50" style="enable-background:new 0 0 50 50;" xml:space="preserve">
<style type="text/css">
	.st0{fill:#272626;}
</style>
<g>
	<g id="XMLID_331_">
		<g id="XMLID_332_">
			<g id="XMLID_523_">
				<polygon id="XMLID_537_" class="st0" points="10.7,21.8 5.9,24.6 5.9,12.6 10.7,15.3 				"/>
				<polygon id="XMLID_534_" class="st0" points="0,28.4 4.9,25.4 4.9,37.4 0,34.9 				"/>
				<polygon id="XMLID_527_" class="st0" points="5.6,19.3 0,22.6 0,28.1 5.6,24.7 				"/>
				<polygon id="XMLID_524_" class="st0" points="10.7,22 5.1,25.3 5.1,30.7 10.7,27.4 				"/>
			</g>
			<g id="XMLID_333_">
				<path id="XMLID_343_" class="st0" d="M6.9,32.8l1-2.9h2.4c0.4,0,0.8,0,1.1,0.1c0.3,0,0.5,0.1,0.7,0.2c0.2,0.1,0.3,0.3,0.3,0.4
					c0,0.2-0.1,0.3-0.3,0.5c-0.2,0.1-0.5,0.2-0.9,0.3c0.6,0.1,1,0.3,1,0.6c0,0.2-0.2,0.4-0.5,0.6c-0.3,0.2-0.8,0.3-1.5,0.3H6.9z
					 M8.9,32.1h0.9c0.3,0,0.5,0,0.6-0.1c0.1-0.1,0.2-0.1,0.2-0.2c0-0.1-0.1-0.2-0.2-0.2c-0.1-0.1-0.3-0.1-0.5-0.1H9L8.9,32.1z
					 M9.3,31h0.7c0.5,0,0.8-0.1,0.8-0.3c0-0.2-0.2-0.2-0.6-0.2H9.4L9.3,31z"/>
				<path id="XMLID_341_" class="st0" d="M17.7,29.9l-0.6,1.8c-0.1,0.3-0.2,0.5-0.4,0.7c-0.2,0.1-0.4,0.3-0.8,0.4
					c-0.4,0.1-0.8,0.1-1.4,0.1c-0.7,0-1.2-0.1-1.6-0.2c-0.4-0.1-0.6-0.4-0.6-0.6c0-0.1,0-0.2,0.1-0.3l0.6-1.8h1.8l-0.6,1.8
					c0,0.1-0.1,0.2-0.1,0.2c0,0.1,0.1,0.2,0.2,0.2c0.1,0.1,0.3,0.1,0.5,0.1c0.3,0,0.5,0,0.6-0.1c0.1-0.1,0.2-0.2,0.3-0.4l0.6-1.8
					H17.7z"/>
				<path id="XMLID_339_" class="st0" d="M20,29.9l-1.1,2.9h-1.8l1.1-2.9H20z"/>
				<path id="XMLID_337_" class="st0" d="M23.9,32.1l-0.2,0.7h-4.2l1-2.9h1.9l-0.8,2.2H23.9z"/>
				<path id="XMLID_334_" class="st0" d="M23.9,32.8l0.9-2.9h1.8c0.4,0,0.8,0,1.1,0.1c0.3,0,0.5,0.1,0.8,0.2
					c0.3,0.1,0.4,0.3,0.6,0.4c0.1,0.2,0.2,0.4,0.2,0.6c0,0.3-0.1,0.5-0.3,0.8c-0.2,0.2-0.5,0.4-0.8,0.5c-0.3,0.1-0.6,0.2-1,0.2
					c-0.3,0-0.7,0-1.3,0H23.9z M25.7,32.1h0.4c0.4,0,0.7,0,0.9-0.1c0.2-0.1,0.3-0.2,0.5-0.3c0.1-0.2,0.2-0.4,0.2-0.6
					c0-0.4-0.3-0.6-0.9-0.6h-0.5L25.7,32.1z"/>
			</g>
			<g id="XMLID_380_">
				<path id="XMLID_456_" class="st0" d="M33.1,30.1l-0.9,2.6h-1.6l0.9-2.6H33.1z"/>
				<path id="XMLID_381_" class="st0" d="M36.3,30.7l-0.8,2h-1.8l0.8-2h-1.3l0.2-0.6h4.5l-0.2,0.6H36.3z"/>
			</g>
			<g id="XMLID_567_">
				<path id="XMLID_568_" class="st0" d="M40.6,32.7c-0.5,0-1-0.1-1.3-0.3c-0.4-0.2-0.6-0.5-0.6-0.8c0-0.4,0.2-0.8,0.6-1.1
					c0.4-0.3,1-0.4,1.7-0.4c0.5,0,1,0.1,1.3,0.3c0.3,0.2,0.5,0.5,0.5,0.8c0,0.4-0.2,0.8-0.6,1.1C41.8,32.6,41.3,32.7,40.6,32.7z
					 M40.6,32.1c0.2,0,0.4-0.1,0.5-0.2c0.1-0.1,0.2-0.3,0.3-0.5c0.1-0.2,0.1-0.4,0.1-0.4c0-0.1-0.1-0.2-0.2-0.3
					c-0.1-0.1-0.2-0.1-0.4-0.1c-0.3,0-0.5,0.1-0.7,0.4c-0.1,0.3-0.2,0.5-0.2,0.7C40,32,40.2,32.1,40.6,32.1z"/>
				<path id="XMLID_571_" class="st0" d="M47.5,30.1l-0.8,2.6h-1.1l-1.4-1.6l-0.4,1.6h-1.2l0.8-2.6h1.3l1.3,1.5l0.4-1.5H47.5z"/>
			</g>
		</g>
	</g>
	<g>
		<g id="XMLID_83_">
			<path id="XMLID_84_" class="st0" d="M50,31.1c0,0.2,0,0.3-0.1,0.5c-0.1,0.1-0.2,0.3-0.3,0.3C49.4,32,49.2,32,49.1,32
				c-0.2,0-0.3,0-0.5-0.1c-0.1-0.1-0.3-0.2-0.3-0.3c-0.1-0.1-0.1-0.3-0.1-0.5c0-0.2,0-0.3,0.1-0.5c0.1-0.1,0.2-0.3,0.3-0.3
				c0.1-0.1,0.3-0.1,0.5-0.1c0.2,0,0.3,0,0.5,0.1c0.1,0.1,0.3,0.2,0.3,0.3C50,30.8,50,30.9,50,31.1z M49.8,31.1
				c0-0.2-0.1-0.4-0.2-0.5c-0.1-0.1-0.3-0.2-0.5-0.2c-0.2,0-0.4,0.1-0.5,0.2c-0.1,0.1-0.2,0.3-0.2,0.5c0,0.2,0.1,0.4,0.2,0.5
				c0.1,0.1,0.3,0.2,0.5,0.2c0.2,0,0.4-0.1,0.5-0.2C49.7,31.5,49.8,31.3,49.8,31.1z M48.6,30.6h0.5c0.1,0,0.2,0,0.3,0.1
				c0.1,0.1,0.1,0.1,0.1,0.2c0,0.1,0,0.1-0.1,0.2c0,0-0.1,0.1-0.2,0.1c0,0,0.1,0,0.1,0c0,0,0.1,0.1,0.1,0.1c0,0,0.1,0.1,0.2,0.3
				h-0.3c-0.1-0.2-0.2-0.3-0.2-0.3c0,0-0.1-0.1-0.1-0.1c0,0,0,0,0,0v0.4h-0.3V30.6z M48.9,31H49c0.1,0,0.1,0,0.2,0c0,0,0-0.1,0-0.1
				c0,0,0-0.1,0-0.1c0,0-0.1,0-0.1,0h-0.1V31z"/>
		</g>
	</g>
</g>
</svg>
