<?xml version="1.0" encoding="utf-8"?>
<!-- Generator: Adobe Illustrator 19.0.0, SVG Export Plug-In . SVG Version: 6.00 Build 0)  -->
<svg version="1.1" id="Layer_1" xmlns="http://www.w3.org/2000/svg" xmlns:xlink="http://www.w3.org/1999/xlink" x="0px" y="0px"
	 viewBox="0 0 50 50" style="enable-background:new 0 0 50 50;" xml:space="preserve">
<style type="text/css">
	.st0{fill:#272626;}
</style>
<g>
	<g>
		<g id="XMLID_128_">
			<path id="XMLID_138_" class="st0" d="M0.5,23.2v1.5h2.3v0.5H0.5v1.6h2.7v0.5H0v-4.6h3.1v0.5H0.5z"/>
			<path id="XMLID_136_" class="st0" d="M5.7,23.2v4.1H5.1v-4.1H3.6v-0.5h3.5v0.5H5.7z"/>
			<path id="XMLID_134_" class="st0" d="M11.2,27.3v-2H8.4v2H7.9v-4.6h0.5v2.1h2.8v-2.1h0.5v4.6H11.2z"/>
			<path id="XMLID_132_" class="st0" d="M13.1,27.3v-4.6h0.5v4.6H13.1z"/>
			<path id="XMLID_129_" class="st0" d="M19.4,25c0,1.3-1.1,2.3-2.4,2.3c-1.3,0-2.4-1-2.4-2.3c0-1.3,1.1-2.3,2.4-2.3
				C18.3,22.7,19.4,23.7,19.4,25z M15.1,25c0,1,0.9,1.8,1.9,1.8c1,0,1.9-0.8,1.9-1.8S18,23.2,17,23.2C16,23.2,15.1,24,15.1,25z"/>
		</g>
	</g>
	<g>
		<g id="XMLID_176_">
			<path id="XMLID_191_" class="st0" d="M21.2,23.8v0.9h2v1h-2v1.6h-1.4v-4.6h3.6v1H21.2z"/>
			<path id="XMLID_188_" class="st0" d="M24.9,26.6l-0.3,0.7h-1.4l2-4.6h1.4l1.9,4.6H27l-0.3-0.7H24.9z M25.9,24.1l-0.6,1.5h1.1
				L25.9,24.1z"/>
			<path id="XMLID_186_" class="st0" d="M32.6,23.2l-0.5,1c-0.5-0.3-1.1-0.5-1.5-0.5c-0.2,0-0.4,0.1-0.4,0.2c0,0.7,2.4,0.3,2.4,1.9
				c0,1-0.9,1.4-1.9,1.4c-0.8,0-1.6-0.3-2.2-0.7l0.5-1c0.5,0.4,1.2,0.7,1.7,0.7c0.3,0,0.5-0.1,0.5-0.3c0-0.7-2.4-0.3-2.4-1.9
				c0-0.9,0.8-1.4,1.9-1.4C31.4,22.6,32.1,22.9,32.6,23.2z"/>
			<path id="XMLID_184_" class="st0" d="M36.1,27.3v-1.7h-1.6v1.7h-1.4v-4.6h1.4v1.8h1.6v-1.8h1.4v4.6H36.1z"/>
			<path id="XMLID_182_" class="st0" d="M38.3,27.3v-4.6h1.4v4.6H38.3z"/>
			<path id="XMLID_179_" class="st0" d="M45.1,25c0,1.3-1.1,2.4-2.5,2.4c-1.4,0-2.5-1-2.5-2.4c0-1.3,1.1-2.3,2.5-2.3
				C44.1,22.7,45.1,23.7,45.1,25z M41.5,25c0,0.7,0.5,1.2,1.1,1.2c0.6,0,1.1-0.5,1.1-1.2c0-0.7-0.5-1.2-1.1-1.2
				C42,23.8,41.5,24.3,41.5,25z"/>
			<path id="XMLID_177_" class="st0" d="M48.8,27.3l-1.9-2.6v2.6h-1.3v-4.6h1.2l1.9,2.6v-2.6H50v4.6H48.8z"/>
		</g>
	</g>
</g>
</svg>
