<?xml version="1.0" encoding="utf-8"?>
<!-- Generator: Adobe Illustrator 19.0.0, SVG Export Plug-In . SVG Version: 6.00 Build 0)  -->
<svg version="1.1" id="Layer_1" xmlns="http://www.w3.org/2000/svg" xmlns:xlink="http://www.w3.org/1999/xlink" x="0px" y="0px"
	 viewBox="0 0 50 50" style="enable-background:new 0 0 50 50;" xml:space="preserve">
<style type="text/css">
	.st0{fill:#272626;}
</style>
<g id="XMLID_114_">
	<g id="XMLID_115_">
		<path id="XMLID_117_" class="st0" d="M2.6,28.2c-0.8-0.2-1.3-0.8-1.3-1.6c0.1-1.2,1.3-2.9,4.1-3.9l-0.9,1c0,0,1.7-0.4,2.3-1.6
			c0,0-4-0.5-6.3,3.6l-0.3-0.4c0,0-1.1,3.4,2.4,4c1.3,0.2,2.4,0.1,3.6-0.3c2.4-0.8,3.2-2.4,3.2-2.4S6.5,29.2,2.6,28.2z"/>
		<path id="XMLID_116_" class="st0" d="M8,21.8c0.8,0.2,1.3,0.8,1.3,1.6c-0.1,1.2-1.3,2.9-4.1,3.9l0.9-1c0,0-1.7,0.4-2.3,1.6
			c0,0,4,0.5,6.3-3.6l0.3,0.4c0,0,1.1-3.4-2.4-4c-1.3-0.2-2.4-0.1-3.6,0.3c-2.4,0.8-3.2,2.4-3.2,2.4S4.2,20.8,8,21.8z"/>
	</g>
	<g id="XMLID_594_">
		<g id="XMLID_653_">
			<path id="XMLID_670_" class="st0" d="M16.6,28.3h-0.3l0-0.2h-0.6l-0.1,0.2h-0.3l0.6-0.7c0.1-0.1,0.1-0.1,0-0.2c0,0-0.1,0-0.1-0.1
				l0.7,0L16.6,28.3z M16.2,28l-0.1-0.4L15.8,28H16.2z"/>
			<path id="XMLID_668_" class="st0" d="M18.8,27.6l0.1-0.2H20l-0.1,0.2h-0.4l-0.2,0.7H19v0h-0.1c0,0,0.1-0.1,0.1-0.1l0.2-0.6H18.8z
				"/>
			<path id="XMLID_666_" class="st0" d="M23.2,27.7l0.1-0.3h0.3l-0.3,0.9h-0.3c0.1,0,0.1-0.1,0.1-0.1c0,0,0-0.1,0.1-0.2h-0.6
				l-0.1,0.4h-0.3l0.2-0.7c0-0.1,0-0.1,0-0.2c0,0,0,0-0.1-0.1h0.5l-0.1,0.3H23.2z"/>
			<path id="XMLID_664_" class="st0" d="M25.8,28.3l0.2-0.7h0c0-0.1,0-0.1,0-0.2c0,0,0,0-0.1-0.1h0.5l-0.2,0.7h0.6l-0.1,0.2H25.8z"
				/>
			<path id="XMLID_662_" class="st0" d="M29.6,27.6l-0.1,0.1h0.7L30.2,28h-0.7l-0.1,0.1h0.8l-0.1,0.2h-1l0.2-0.7c0-0.1,0-0.1,0-0.2
				c0,0,0,0-0.1-0.1h1.2l-0.1,0.2H29.6z"/>
			<path id="XMLID_660_" class="st0" d="M32.6,27.6l0.1-0.2h1.1l-0.1,0.2h-0.4L33,28.3h-0.3v0h-0.1c0,0,0.1-0.1,0.1-0.1l0.2-0.6
				H32.6z"/>
			<path id="XMLID_658_" class="st0" d="M36.4,27.4l-0.3,0.9h-0.3l0.2-0.7c0-0.1,0-0.1,0-0.2c0,0,0,0-0.1-0.1H36.4z"/>
			<path id="XMLID_656_" class="st0" d="M40.1,28.1c0,0.1-0.1,0.1-0.1,0.2c-0.1,0-0.2,0.1-0.3,0.1h-0.5c-0.1,0-0.2,0-0.3-0.1
				c-0.1-0.1-0.1-0.1,0-0.3l0.1-0.3c0,0,0,0,0-0.1c0-0.1,0-0.2,0-0.2c0,0,0,0-0.1-0.1h0.9c0.2,0,0.3,0,0.3,0.1c0,0,0,0.1,0,0.2h-0.7
				c-0.1,0-0.1,0-0.2,0c0,0-0.1,0.1-0.1,0.1l0,0.1c0,0.1,0,0.1,0,0.1c0,0,0.1,0,0.1,0H40.1z"/>
			<path id="XMLID_654_" class="st0" d="M43.6,27.4c0.1,0,0.2,0,0.3,0.1c0,0,0,0.1,0,0.1h-0.7c-0.1,0-0.1,0-0.1,0.1c0,0,0,0,0,0
				c0,0,0,0,0,0c0,0,0.1,0,0.2,0h0.2c0.1,0,0.2,0,0.2,0.1c0,0,0,0.1,0,0.2c0,0.1-0.1,0.2-0.2,0.2c-0.1,0-0.2,0.1-0.4,0.1h-0.4
				c-0.1,0-0.2,0-0.2-0.1c0,0,0-0.1,0-0.1h0.7c0,0,0.1,0,0.1,0c0,0,0,0,0.1-0.1c0,0,0,0,0-0.1c0,0-0.1,0-0.1,0h-0.4
				c-0.2,0-0.3-0.1-0.2-0.3c0,0,0-0.1,0-0.1c0-0.1,0-0.1,0-0.2c0,0,0,0-0.1,0H43.6z"/>
		</g>
		<g id="XMLID_635_">
			<path id="XMLID_651_" class="st0" d="M17.1,25.3c-0.2,0.3-0.4,0.6-0.5,0.7c-0.3,0.2-0.7,0.3-1.3,0.3h-2c-0.6,0-1-0.1-1.2-0.3
				c-0.2-0.2-0.3-0.6-0.1-1.2l0.4-1.2c0-0.1,0.1-0.2,0.1-0.3c0.2-0.4,0.2-0.7,0-0.9c-0.1-0.1-0.2-0.2-0.3-0.2h4
				c0.8,0,1.2,0.1,1.4,0.3c0.1,0.1,0.1,0.4,0.1,0.7h-3.1c-0.3,0-0.5,0.1-0.7,0.2c-0.1,0.1-0.2,0.3-0.3,0.6l-0.1,0.4
				c-0.1,0.3-0.1,0.5-0.1,0.6c0.1,0.1,0.2,0.2,0.5,0.2H17.1z"/>
			<path id="XMLID_648_" class="st0" d="M23.2,26.3h-1.4l-0.1-0.7h-2.5l-0.6,0.7h-1.4l2.7-3.1c0.2-0.3,0.2-0.5,0-0.7
				c-0.1-0.1-0.3-0.2-0.5-0.3l3,0L23.2,26.3z M21.5,24.7l-0.3-1.5l-1.3,1.5H21.5z"/>
			<path id="XMLID_645_" class="st0" d="M29.4,24c-0.1,0.4-0.3,0.7-0.5,0.9c-0.3,0.3-0.6,0.4-1,0.4h-2.5l-0.3,1h-1.2l1-3.1
				c0.1-0.3,0.1-0.6-0.1-0.8c-0.1-0.1-0.2-0.2-0.3-0.2h4.2c0.6,0,0.9,0.1,1,0.4c0.1,0.2,0.1,0.5,0,1L29.4,24z M27.6,24.3
				c0.3,0,0.5-0.1,0.6-0.4l0.1-0.2c0-0.1,0-0.2,0-0.3c-0.1-0.1-0.2-0.1-0.4-0.1H26l-0.3,1H27.6z"/>
			<path id="XMLID_643_" class="st0" d="M30.1,23.3l0.3-1h4.7l-0.3,1h-1.7l-1,3.1h-1.2v0h-0.3c0.2-0.1,0.3-0.3,0.5-0.6l0.8-2.5H30.1
				z"/>
			<path id="XMLID_640_" class="st0" d="M39.9,26.3h-1.4l-0.1-0.7h-2.5l-0.6,0.7h-1.4l2.7-3.1c0.2-0.3,0.2-0.5,0-0.7
				c-0.1-0.1-0.3-0.2-0.5-0.3l3,0L39.9,26.3z M38.2,24.7l-0.3-1.5l-1.3,1.5H38.2z"/>
			<path id="XMLID_638_" class="st0" d="M43.2,22.2l-1.4,4.1h-1.2l1-3.1c0.1-0.3,0.1-0.6-0.2-0.8c-0.1-0.1-0.2-0.2-0.3-0.2H43.2z"/>
			<path id="XMLID_636_" class="st0" d="M45.3,23.4l-1,2.9h-1.2l1-3.1c0.1-0.3,0.1-0.6-0.1-0.8c-0.1-0.1-0.2-0.2-0.3-0.2l2.8,0
				l1.3,2.9h0l1-2.9H50l-1.4,4.1h-1.9L45.3,23.4L45.3,23.4z"/>
		</g>
	</g>
</g>
</svg>
