<?xml version="1.0" encoding="utf-8"?>
<!-- Generator: Adobe Illustrator 19.2.1, SVG Export Plug-In . SVG Version: 6.00 Build 0)  -->
<svg version="1.1" id="Layer_1" xmlns="http://www.w3.org/2000/svg" xmlns:xlink="http://www.w3.org/1999/xlink" x="0px" y="0px"
	 viewBox="0 0 187.3 25" style="enable-background:new 0 0 187.3 25;" xml:space="preserve">
<style type="text/css">
	.st0{fill:#010202;}
</style>
<g>
	<g>
		<path class="st0" d="M49,0.7h12.8c2.3,0,4,0.5,5.1,1.5c1.2,1,1.8,2.5,1.8,4.3c0,1.3-0.4,2.5-1.1,3.4c-0.7,1-1.9,1.7-3.6,2v0.1
			c1.1,0.1,2,0.4,2.7,0.8c0.7,0.4,1.3,0.9,1.7,1.5c0.4,0.6,0.7,1.2,0.8,1.8c0.2,0.6,0.2,1.2,0.2,1.8c0,0.7-0.1,1.5-0.4,2.2
			c-0.2,0.7-0.6,1.4-1.2,2.1c-0.6,0.7-1.4,1.2-2.5,1.6c-1.1,0.4-2.4,0.6-3.9,0.6H49V0.7z M50.6,11.5h10.6c0.6,0,1.1,0,1.7-0.1
			c0.6-0.1,1.2-0.3,1.9-0.5c0.7-0.3,1.2-0.8,1.7-1.5c0.5-0.7,0.7-1.6,0.7-2.7c0-1.1-0.2-1.9-0.6-2.6c-0.4-0.6-0.9-1.1-1.5-1.4
			c-0.6-0.3-1.2-0.5-1.9-0.5C62.5,2.1,61.8,2,60.9,2H50.6V11.5z M50.6,23.1h10.7c0.6,0,1.2,0,1.8-0.1c0.7-0.1,1.4-0.3,2.1-0.6
			c0.8-0.3,1.4-0.9,2-1.6c0.5-0.8,0.8-1.7,0.8-3c0-1.2-0.2-2.1-0.7-2.8c-0.5-0.7-1.1-1.2-1.8-1.5c-0.7-0.3-1.4-0.5-2.2-0.6
			c-0.7-0.1-1.6-0.1-2.5-0.1H50.6V23.1z"/>
		<path class="st0" d="M73,0.7h12.1c1.2,0,2.3,0.1,3.3,0.3c0.9,0.2,1.8,0.5,2.5,1c0.7,0.5,1.3,1.1,1.7,1.9c0.4,0.8,0.6,1.8,0.6,3.1
			c0,1.3-0.4,2.5-1.2,3.7c-0.8,1.1-2,1.9-3.6,2.2v0.1c1.4,0.2,2.5,0.7,3.3,1.6c0.8,0.9,1.2,2,1.2,3.3c0,2.2,0.1,3.7,0.2,4.6
			c0.1,0.9,0.2,1.6,0.5,2h-1.5c-0.2-0.2-0.4-0.7-0.5-1.5c-0.1-0.8-0.2-2.1-0.2-4c0-1.1-0.1-1.9-0.3-2.6c-0.2-0.7-0.5-1.2-1-1.6
			c-0.5-0.4-1.1-0.7-1.8-0.8c-0.8-0.2-1.7-0.2-2.9-0.2H74.5v10.8H73V0.7z M74.5,12.3h10.3c0.7,0,1.3,0,2-0.1
			c0.7-0.1,1.4-0.3,2.1-0.6c0.7-0.3,1.4-0.9,1.9-1.6c0.5-0.8,0.8-1.8,0.8-3c0-0.9-0.2-1.7-0.5-2.3c-0.3-0.6-0.8-1.1-1.4-1.5
			c-0.6-0.4-1.3-0.6-2-0.8C87,2.1,86.1,2,85.3,2H74.5V12.3z"/>
		<path class="st0" d="M104.9,0.7h1.7l10.9,23.7h-1.7l-3.5-7.6H99.2l-3.5,7.6H94L104.9,0.7z M99.8,15.4h11.9l-5.9-13L99.8,15.4z"/>
		<polygon class="st0" points="119.2,0.7 121.1,0.7 138.8,22.3 138.8,22.3 138.8,0.7 140.4,0.7 140.4,24.4 138.4,24.4 120.8,2.8 
			120.7,2.8 120.7,24.4 119.2,24.4 		"/>
		<path class="st0" d="M144.4,0.7h11.1c1.5,0,2.9,0.2,4.1,0.6c1.3,0.4,2.4,1.1,3.4,2c1,0.9,1.8,2.1,2.3,3.7c0.6,1.5,0.8,3.4,0.8,5.6
			c0,3.6-0.9,6.5-2.8,8.6c-1.8,2.1-4.6,3.2-8.1,3.2h-10.8V0.7z M145.9,23.1h9.6c2.8,0,5-0.9,6.6-2.6c1.6-1.8,2.5-4.4,2.5-7.9
			c0-1.8-0.2-3.4-0.7-4.8c-0.4-1.3-1.1-2.4-1.9-3.3c-0.8-0.8-1.8-1.5-3-1.9c-1.1-0.4-2.4-0.6-3.9-0.6h-9.2V23.1z"/>
		<path class="st0" d="M170,16.2c0,2.2,0.8,4,2.2,5.3c1.4,1.4,3.4,2,5.9,2c1.2,0,2.3-0.2,3.2-0.5c0.9-0.3,1.6-0.8,2.1-1.3
			c0.5-0.5,0.9-1,1.2-1.5c0.3-0.5,0.5-1,0.7-1.6h1.5c-0.7,2.1-1.8,3.7-3.3,4.7c-1.5,1-3.4,1.5-5.7,1.5c-2.9,0-5.2-0.8-6.9-2.5
			c-1.7-1.6-2.6-3.9-2.6-6.7c0-1,0.2-2,0.5-3c0.3-1,0.9-2,1.6-2.9c0.7-0.9,1.7-1.6,3-2.2c1.2-0.6,2.7-0.8,4.4-0.8
			c2.9,0,5.2,0.9,6.8,2.6c1.7,1.7,2.5,4,2.5,6.8H170z M185.6,14.9c-0.3-2.2-1.2-3.9-2.6-5c-1.4-1.1-3.1-1.7-5.2-1.7
			c-2.1,0-3.9,0.6-5.3,1.8c-1.4,1.2-2.2,2.8-2.5,4.9H185.6z M182.3,0l-5.2,4.7h-1.5l4.8-4.7H182.3z"/>
		<path class="st0" d="M0,0.7h12c7.1,0,10.4,4.6,10.4,11.5c0,6.6-2.9,12.2-10.2,12.2H0V0.7z M12.1,21.4c5.8,0,6.8-4.8,6.8-9.1
			c0-4.2-1.4-8.5-7.5-8.5H3.5v17.6H12.1z"/>
		<path class="st0" d="M25.9,12.5c0.4-4.3,3.4-6,8.6-6c3.6,0,8,0.9,8,4.9v9.4c0,1,0.5,1.5,1.5,1.5c0.4,0,0.8,0,1.2-0.1v2.3
			c-0.8,0.1-1.8,0.2-2.6,0.2c-1.7,0-2.8-0.5-3-2.4C38.2,24,35,25,32.2,25c-5.7,0-7.1-3-7.1-5.2c0-3.2,1.9-4.8,7.5-5.4l3.8-0.4
			c1.9-0.2,3-0.5,3-2.1c0-2.4-2.3-2.9-5-2.9c-2.8,0-5.3,0.8-5.4,3.5H25.9z M39.4,15.3c-0.5,0.6-1.4,0.8-3.3,1l-3.8,0.5
			c-2.6,0.4-4,1-4,2.9c0,1.6,1.6,2.8,4.1,2.8c3.8,0,6.9-2,6.9-4.9V15.3z"/>
	</g>
</g>
</svg>
